<svg xmlns="http://www.w3.org/2000/svg" width="141" height="141" viewBox="0 0 141 141"><defs><clipPath id="9mzia"><path d="M70.5 0C109.436 0 141 31.564 141 70.5S109.436 141 70.5 141 0 109.436 0 70.5 31.563 0 70.5 0z"/></clipPath></defs><g><g><path fill="#006861" d="M70.5 0C109.436 0 141 31.564 141 70.5S109.436 141 70.5 141 0 109.436 0 70.5 31.563 0 70.5 0z"/></g><g clip-path="url(#9mzia)"><path fill="#fff" d="M137.774 131.354a1.788 1.788 0 0 1-2.527 2.529L123.11 121.7l-5.79 11.623-11.605-31.612 31.502 11.648-11.578 5.811zm-19.957-7.047l3.47-6.965 6.95-3.484-16.49-6.1zm-65.238-78.72c3.942 0 7.153 3.222 7.153 7.17 0 3.954-3.21 7.176-7.153 7.176-3.93 0-7.14-3.222-7.14-7.176 0-3.948 3.21-7.17 7.14-7.17zm0 10.757a3.587 3.587 0 0 0 3.576-3.587c0-1.97-1.604-3.58-3.576-3.58-1.96 0-3.564 1.61-3.564 3.58 0 1.976 1.605 3.587 3.564 3.587zm16.08-10.756c3.932 0 7.141 3.221 7.141 7.169 0 3.954-3.21 7.176-7.14 7.176-3.942 0-7.152-3.222-7.152-7.176 0-3.948 3.21-7.17 7.151-7.17zm0 10.756c1.96 0 3.565-1.611 3.565-3.587 0-1.97-1.605-3.58-3.565-3.58a3.585 3.585 0 0 0-3.575 3.58 3.587 3.587 0 0 0 3.575 3.587zm16.07-10.756c3.94 0 7.14 3.221 7.14 7.169 0 3.954-3.2 7.176-7.14 7.176-3.943 0-7.141-3.222-7.141-7.176 0-3.948 3.198-7.17 7.14-7.17zm0 10.756c1.97 0 3.564-1.611 3.564-3.587 0-1.97-1.594-3.58-3.565-3.58a3.585 3.585 0 0 0-3.575 3.58 3.587 3.587 0 0 0 3.575 3.587zm16.068 69.897a1.795 1.795 0 0 1 0 3.589h-60.71a1.792 1.792 0 0 1-1.788-1.795v-87.82c0-.988.8-1.794 1.788-1.794h89.283c.984 0 1.788.806 1.788 1.794v59.142c0 .99-.804 1.794-1.788 1.794a1.792 1.792 0 0 1-1.788-1.794V67.1H41.875v59.141zm-58.922-62.73h85.707V42.01H41.875z"/></g></g></svg>