<svg xmlns="http://www.w3.org/2000/svg" width="141" height="141" viewBox="0 0 141 141"><defs><clipPath id="z6m6a"><path d="M70.5 0C109.436 0 141 31.564 141 70.5S109.436 141 70.5 141 0 109.436 0 70.5 31.564 0 70.5 0z"/></clipPath></defs><g><g><path fill="#006861" d="M70.5 0C109.436 0 141 31.564 141 70.5S109.436 141 70.5 141 0 109.436 0 70.5 31.564 0 70.5 0z"/></g><g clip-path="url(#z6m6a)"><path fill="#fff" d="M71.88 90.593l15.84-9.602a1.571 1.571 0 0 1 1.631 0l15.84 9.602c.056.04.109.083.16.13.05.037.1.076.147.118.05.057.096.117.138.181a1.7 1.7 0 0 1 .109.147c.038.076.07.155.096.236.023.046.042.094.06.143.036.136.054.276.054.417v16.003c0 .562-.291 1.082-.768 1.371l-15.84 9.603-.017.007-.018.013c-.083.044-.17.08-.26.108-.036.013-.07.034-.11.045-.269.074-.553.074-.823 0-.038-.011-.073-.032-.11-.045a1.552 1.552 0 0 1-.26-.108l-.016-.013-.018-.007-15.84-9.603a1.604 1.604 0 0 1-.768-1.37V91.964c0-.14.018-.28.055-.415.017-.052.037-.103.06-.152.026-.079.058-.155.095-.229a1.47 1.47 0 0 1 .111-.149 1.67 1.67 0 0 1 .137-.179 1.74 1.74 0 0 1 .148-.118c.052-.048.108-.091.167-.13zm30.907 4.198l-12.672 7.682v12.27l12.672-7.68zm-6.336-5.761L83.69 96.766l4.84 2.934 12.762-7.735zm-20.68 2.935l4.84 2.934 12.76-7.735-4.84-2.936zm-1.496 15.095l12.672 7.682v-12.27l-12.672-7.681zm15.84-35.9h-3.168V58.357l-1.901 2.56-2.534-1.92 4.752-6.401a1.63 1.63 0 0 1 2.534 0l4.752 6.401-2.534 1.92-1.9-2.56zm1.9 67.855l2.535 1.92-4.752 6.402a1.573 1.573 0 0 1-2.534 0l-4.752-6.402 2.534-1.92 1.901 2.56v-12.802h3.168v12.803zm-5.068-64.654h3.168v3.2h-3.168zm0 48.01h3.168v3.201h-3.168zm-39.6-20.805l2.534 1.921-1.902 2.56-6.336-4.8a1.612 1.612 0 0 1 0-2.56l6.336-4.802 1.902 2.56-2.535 1.92h12.672v3.201zm88.071-2.88a1.612 1.612 0 0 1 0 2.56l-6.336 4.802-1.9-2.561 2.534-1.92h-12.672v-3.201h12.672l-2.534-1.92 1.9-2.56zm-72.232-.32h3.169v3.2h-3.169zm47.522 0h3.168v3.2h-3.168zM67.243 80.728l-8.959-9.051.446 3.167-3.136.453-1.12-7.92a1.607 1.607 0 0 1 0-.47 1.586 1.586 0 0 1 1.8-1.349l7.839 1.139-.448 3.168-3.135-.451 8.96 9.051zm54.222 43.908l1.12 7.92a1.593 1.593 0 0 1-1.793 1.812l-7.84-1.132.448-3.168 3.132.454-8.96-9.052 2.24-2.262 8.96 9.051-.447-3.167zM69.49 82.993l2.24-2.263 2.24 2.263-2.24 2.263zm33.604 33.947l2.24-2.264 2.24 2.264-2.24 2.263zm-33.611 4.527l-8.96 9.052 3.136-.451.448 3.168-7.84 1.132a1.575 1.575 0 0 1-.45 0 1.598 1.598 0 0 1-1.343-1.812l1.126-7.92 3.137.453-.447 3.167 8.96-9.052zm48.842-46.626l.447-3.164-8.96 9.051-2.24-2.263 8.96-9.051-3.135.451-.448-3.168 7.839-1.132a1.56 1.56 0 0 1 1.345.453c.353.356.519.86.448 1.359l-1.12 7.92zm-48.834 42.1l2.241-2.263 2.24 2.263-2.24 2.263zm33.603-33.955l2.24-2.262 2.24 2.262-2.24 2.264z"/></g></g></svg>