<svg xmlns="http://www.w3.org/2000/svg" width="141" height="141" viewBox="0 0 141 141"><defs><clipPath id="mccra"><path d="M70.5 0C109.436 0 141 31.564 141 70.5S109.436 141 70.5 141 0 109.436 0 70.5 31.564 0 70.5 0z"/></clipPath></defs><g><g><path fill="#006861" d="M70.5 0C109.436 0 141 31.564 141 70.5S109.436 141 70.5 141 0 109.436 0 70.5 31.564 0 70.5 0z"/></g><g clip-path="url(#mccra)"><path fill="#fff" d="M36.812 108.037A14.423 14.423 0 0 1 35 101.044V70.78a6.398 6.398 0 0 1 6.4-6.396c3.534 0 6.4 2.863 6.4 6.396v20.974a6.18 6.18 0 0 1 1.589-.187 6.061 6.061 0 0 1 4.379 2.022L64.82 105.86a23.748 23.748 0 0 1 11.742 19.286h.038v15.991h-3.2v-14.83a20.49 20.49 0 0 0-10.31-17.744 2.26 2.26 0 0 1-.479-.366L51.383 95.724a2.892 2.892 0 0 0-2.08-.96 2.98 2.98 0 0 0-2.132.851 2.9 2.9 0 0 0-.096 4.01l13.109 14.416-2.368 2.15-13.11-14.413a6.073 6.073 0 0 1-.106-8.048V70.78a3.2 3.2 0 0 0-3.2-3.199 3.2 3.2 0 0 0-3.2 3.198v30.265a11.227 11.227 0 0 0 1.41 5.437l14.388 25.885c.133.237.202.504.202.776v7.995H51v-7.581zM131 70.779v30.095c-.001 2.567-.688 5.086-1.989 7.299L115 133.554v7.583h-3.2v-7.995c-.002-.27.064-.535.192-.773l14.24-25.78a11.254 11.254 0 0 0 1.568-5.715V70.78a3.2 3.2 0 0 0-3.2-3.198 3.2 3.2 0 0 0-3.2 3.198V93.73a6.073 6.073 0 0 1-.108 8.051l-13.108 14.41-2.368-2.153 13.102-14.413a2.9 2.9 0 0 0-.096-4.01 2.95 2.95 0 0 0-2.133-.85 2.894 2.894 0 0 0-2.08.96l-11.22 12.472a1.593 1.593 0 0 1-.408.32 20.518 20.518 0 0 0-10.381 17.79v14.83h-3.2v-15.99h.038c.401-8.001 4.82-15.258 11.746-19.29l11.048-12.27a5.968 5.968 0 0 1 5.968-1.83V70.779a6.398 6.398 0 0 1 6.4-6.396c3.535 0 6.4 2.864 6.4 6.396zm-21.6 20.16l-25.6 14.803a1.548 1.548 0 0 1-.303.125c-.03.01-.057.027-.086.035-.27.073-.553.073-.823 0-.028-.008-.056-.026-.086-.035a1.55 1.55 0 0 1-.302-.125L56.6 90.94a1.598 1.598 0 0 1-.8-1.384V61.185c.005-.142.03-.284.072-.42.013-.044.037-.082.053-.127a1.57 1.57 0 0 1 .107-.254c.027-.045.064-.082.094-.125.048-.073.101-.141.16-.205.036-.035.08-.06.118-.093.064-.059.131-.112.204-.16h.015l25.6-14.39a1.6 1.6 0 0 1 1.569 0l25.6 14.39h.016c.072.048.14.101.203.16.038.033.083.058.118.093.059.064.112.132.16.205.031.043.068.08.095.125.042.081.079.166.107.254.016.045.04.083.053.128.037.136.055.277.055.419v28.371c0 .571-.305 1.098-.8 1.384zM60.664 61.186l8.825 4.957 22.337-12.558L83 48.627zM81.4 76.512L59 63.919v24.716l22.4 12.953zm23.936-15.327l-10.248-5.757L72.76 67.981 83 73.742zM107 63.919L84.6 76.512v25.074L107 88.634zm-6.4 21.251h3.2v3.198h-3.2zm-6.4 3.198h3.2v3.198h-3.2zm-6.4 3.198H91v3.198h-3.2z"/></g></g></svg>