<svg xmlns="http://www.w3.org/2000/svg" width="141" height="141" viewBox="0 0 141 141"><defs><clipPath id="f812a"><path d="M70.5 0C109.436 0 141 31.564 141 70.5S109.436 141 70.5 141 0 109.436 0 70.5 31.564 0 70.5 0z"/></clipPath></defs><g><g><path fill="#006861" d="M70.5 0C109.436 0 141 31.564 141 70.5S109.436 141 70.5 141 0 109.436 0 70.5 31.564 0 70.5 0z"/></g><g clip-path="url(#f812a)"><path fill="#fff" d="M131.706 69.815c3.498 0 6.335 2.864 6.335 6.397v54.376c0 3.533-2.837 6.397-6.335 6.397h-31.129l3.802 12.795h3.572v3.198H73.11v-3.198h3.572l3.801-12.795H49.356c-3.498 0-6.335-2.864-6.335-6.397V76.212c0-3.533 2.837-6.397 6.335-6.397v3.199c-1.75 0-3.168 1.431-3.168 3.198v47.98h88.685v-47.98c0-1.767-1.417-3.198-3.167-3.198zm-34.435 67.17H83.79l-3.8 12.795h21.08zm37.602-9.595H46.188v3.198c0 1.767 1.418 3.199 3.168 3.199h82.35c1.75 0 3.167-1.432 3.167-3.199zm-9.502-6.398V63.418c0-1.767-1.417-3.198-3.167-3.198H58.858c-1.75 0-3.168 1.431-3.168 3.198v57.574h-3.167V63.418c0-3.533 2.836-6.397 6.335-6.397h63.346c3.499 0 6.335 2.864 6.335 6.397v57.574zM58.858 63.418h3.167v3.199h-3.167zm6.334 0h3.167v3.199h-3.167zm6.335 0h3.167v3.199h-3.167zm-12.67 6.397h63.347v3.199H58.858zm1.584 22.39a1.59 1.59 0 0 1-1.583-1.599V77.812c0-.884.708-1.6 1.583-1.6h15.837c.875 0 1.584.716 1.584 1.6v12.794c0 .884-.71 1.6-1.584 1.6zm1.584-3.198h12.67V79.41h-12.67zm19.004-12.795h12.669v3.199h-12.67zm0 6.398h25.338v3.198H81.03zm0 6.397h12.669v3.198h-12.67zm-22.171 6.397h63.346v3.198H58.858zm50.677-12.794h12.669v3.198h-12.67zm-12.67 6.397h22.171v3.198h-22.17zM76.278 101.8c.875 0 1.584.716 1.584 1.6v12.794c0 .883-.71 1.599-1.584 1.599H60.441a1.59 1.59 0 0 1-1.583-1.6V103.4c0-.883.708-1.599 1.583-1.599zM74.694 105H62.025v9.595h12.67zm6.335-3.199h12.669V105h-12.67zm0 6.397h25.338v3.199H81.03zm0 6.397h12.669v3.199h-12.67zm28.506-6.397h12.669v3.199h-12.67zm-12.67 6.397h22.171v3.199h-22.17z"/></g></g></svg>