<svg xmlns="http://www.w3.org/2000/svg" width="141" height="141" viewBox="0 0 141 141"><defs><clipPath id="7kt9a"><path d="M70.5 0C109.435 0 141 31.564 141 70.5S109.436 141 70.5 141C31.562 141 0 109.436 0 70.5S31.563 0 70.5 0z"/></clipPath></defs><g><g><path fill="#006861" d="M70.5 0C109.435 0 141 31.564 141 70.5S109.436 141 70.5 141C31.562 141 0 109.436 0 70.5S31.563 0 70.5 0z"/></g><g clip-path="url(#7kt9a)"><path fill="#fff" d="M39.911 108.308V57.111a8.009 8.009 0 0 1 8-8h63.997a8.009 8.009 0 0 1 8 8v1.6h-3.2v-1.6a4.8 4.8 0 0 0-4.8-4.8H47.911a4.8 4.8 0 0 0-4.8 4.8v51.197a4.8 4.8 0 0 0 3.601 4.65l-.8 3.097a8 8 0 0 1-6-7.747zm6.4-52.797h3.2v3.2h-3.2zm6.4 0h3.2v3.2h-3.2zm6.4 0h3.2v3.2h-3.2zm59.552 66.89l15.176 15.175a1.6 1.6 0 0 1 0 2.262l-4.8 4.8a1.6 1.6 0 0 1-2.262 0l-14.814-14.814a22.347 22.347 0 0 1-6.525 3.161c-11.836 3.51-24.275-3.241-27.784-15.077H55.91v-3.2h21.054a21.555 21.555 0 0 1 1.344-11.465V85.91h3.2v11.788a22.54 22.54 0 0 1 3.2-3.322V82.71h3.2v9.43a22.257 22.257 0 0 1 3.2-1.528v-6.303h3.2v5.332a22.183 22.183 0 0 1 3.2-.45V77.91h3.2v11.28c1.076.073 2.145.223 3.2.45V74.71h3.2v15.902a22.25 22.25 0 0 1 3.2 1.528V81.11h3.199v13.266a22.516 22.516 0 0 1 3.2 3.322V87.509h3.2v15.734a21.555 21.555 0 0 1 1.344 11.465h1.856v3.2h-2.544a22.15 22.15 0 0 1-1.9 4.493zm-19.554 8.307c10.603 0 19.2-8.596 19.2-19.2 0-10.603-8.597-19.199-19.2-19.199-10.604 0-19.2 8.596-19.2 19.2.012 10.598 8.6 19.187 19.2 19.199zm17.748-5.589a22.635 22.635 0 0 1-2.408 2.667l13.459 13.459 2.537-2.538zm-1.749-13.61c0 8.835-7.163 15.998-16 15.998-8.836 0-15.999-7.163-15.999-15.999s7.163-16 16-16c8.832.01 15.99 7.168 16 16zm-28.378 3.199h24.758a12.684 12.684 0 0 0-4.38-13.175v9.975h-3.2V99.651a12.739 12.739 0 0 0-3.2-.832v12.69H97.51v-12.69a12.743 12.743 0 0 0-3.2.832v11.857h-3.2v-9.975a12.682 12.682 0 0 0-4.379 13.175zm23.447 3.2H88.041a12.799 12.799 0 0 0 11.068 6.4 12.8 12.8 0 0 0 11.068-6.4zM57.51 61.911h63.998a8.009 8.009 0 0 1 8 8v51.197a7.988 7.988 0 0 1-2 5.29l-2.4-2.116a4.798 4.798 0 0 0 1.2-3.174V69.91a4.8 4.8 0 0 0-4.8-4.8H57.51a4.8 4.8 0 0 0-4.8 4.8v51.198a4.8 4.8 0 0 0 4.8 4.8h20.8v3.2h-20.8a8.01 8.01 0 0 1-8-8V69.91a8.009 8.009 0 0 1 8-8zm-1.6 6.4h3.2v3.199h-3.2zm6.4 0h3.2v3.199h-3.2zm6.4 0h3.2v3.199h-3.2zm-9.6 33.598h3.2v9.6h-3.2zm6.4-9.6h3.2v19.2h-3.2zm6.4 4.8h3.2v14.4h-3.2z"/></g></g></svg>