<svg xmlns="http://www.w3.org/2000/svg" width="141" height="141" viewBox="0 0 141 141"><defs><clipPath id="wvvea"><path d="M70.5 0C109.436 0 141 31.564 141 70.5S109.436 141 70.5 141C31.563 141 0 109.436 0 70.5S31.563 0 70.5 0z"/></clipPath></defs><g><g><path fill="#006861" d="M70.5 0C109.436 0 141 31.564 141 70.5S109.436 141 70.5 141C31.563 141 0 109.436 0 70.5S31.563 0 70.5 0z"/></g><g clip-path="url(#wvvea)"><path fill="#fff" d="M48.903 131.78c-3.754 0-6.798-3.069-6.798-6.856V56.362c0-3.787 3.044-6.856 6.798-6.856h74.784c3.754 0 6.798 3.07 6.798 6.856v3.428h-3.4v-3.428c0-1.894-1.52-3.428-3.398-3.428H48.903c-1.877 0-3.399 1.534-3.399 3.428v68.562c0 1.894 1.522 3.429 3.4 3.429h3.399v3.428zm0-75.418h3.4v3.428h-3.4zm6.8 0h3.399v3.428h-3.4zm6.797 0h3.4v3.428h-3.4zm-6.798 13.712c0-3.786 3.044-6.856 6.798-6.856h74.784c3.754 0 6.798 3.07 6.798 6.856v68.563c0 3.786-3.044 6.856-6.798 6.856H62.5c-3.754 0-6.798-3.07-6.798-6.856zm3.4 68.563c0 1.894 1.52 3.428 3.398 3.428h74.784c1.877 0 3.399-1.534 3.399-3.428V70.074c0-1.893-1.522-3.428-3.4-3.428H62.5c-1.877 0-3.398 1.535-3.398 3.428zM62.5 70.074h3.4v3.429h-3.4zm6.8 0h3.398v3.429H69.3zm6.797 0h3.4v3.429h-3.4zM62.5 76.931h74.784v3.428H62.5zm0 8.57h13.597v3.428H62.5zm0 6.856h10.198v3.428H62.5zm37.392 6.856c6.567.009 11.89 5.376 11.897 12 0 6.626-5.326 11.997-11.897 11.997-6.571 0-11.897-5.37-11.897-11.998 0-6.627 5.326-11.999 11.897-11.999zm0 20.57c4.691-.007 8.492-3.84 8.498-8.57 0-4.734-3.805-8.571-8.498-8.571-4.694 0-8.498 3.837-8.498 8.57 0 4.733 3.804 8.57 8.498 8.57zm27.193-3.429c0 .947-.76 1.714-1.699 1.714h-4.492a21.885 21.885 0 0 1-1.344 3.274l3.176 3.201c.663.67.663 1.755 0 2.424l-7.211 7.273a1.691 1.691 0 0 1-2.404 0l-3.174-3.201c-1.045.538-2.13.99-3.246 1.354v4.53c0 .947-.761 1.714-1.7 1.714H94.793c-.939 0-1.7-.767-1.7-1.714v-4.53a21.9 21.9 0 0 1-3.246-1.354l-3.174 3.201a1.691 1.691 0 0 1-2.404 0l-7.212-7.273a1.727 1.727 0 0 1 0-2.424l3.177-3.201a21.945 21.945 0 0 1-1.344-3.274h-4.492c-.94 0-1.7-.767-1.7-1.714V106.07c0-.948.76-1.715 1.7-1.715h4.492a22.299 22.299 0 0 1 1.342-3.273l-3.175-3.202a1.727 1.727 0 0 1 0-2.424l7.212-7.272a1.691 1.691 0 0 1 2.404 0l3.174 3.202a21.9 21.9 0 0 1 3.247-1.355v-4.53c0-.947.76-1.714 1.7-1.714h10.197c.939 0 1.7.767 1.7 1.714v4.53c1.115.364 2.2.816 3.246 1.355l3.174-3.202a1.691 1.691 0 0 1 2.404 0l7.211 7.272c.663.67.663 1.755 0 2.424l-3.176 3.202a21.907 21.907 0 0 1 1.344 3.274h4.492c.939 0 1.7.767 1.7 1.714zm-3.398-8.57h-4.07c-.774 0-1.45-.53-1.645-1.286a18.829 18.829 0 0 0-1.988-4.847 1.727 1.727 0 0 1 .261-2.083l2.874-2.9-4.807-4.849-2.875 2.9a1.688 1.688 0 0 1-2.065.264 18.488 18.488 0 0 0-4.806-2.005 1.712 1.712 0 0 1-1.275-1.66v-4.103h-6.798v4.097c0 .78-.525 1.463-1.275 1.659a18.498 18.498 0 0 0-4.806 2.005 1.687 1.687 0 0 1-2.065-.263l-2.876-2.9-4.806 4.849 2.873 2.9c.547.552.654 1.408.262 2.08a18.758 18.758 0 0 0-.883 1.715 18.683 18.683 0 0 0-1.106 3.141 1.702 1.702 0 0 1-1.645 1.286h-4.069v6.856h4.07c.774 0 1.45.53 1.644 1.286a18.829 18.829 0 0 0 1.99 4.847c.393.673.284 1.53-.263 2.082l-2.873 2.9 4.806 4.85 2.876-2.9a1.688 1.688 0 0 1 2.065-.264c1.501.893 3.119 1.568 4.806 2.005.75.196 1.275.878 1.275 1.66v4.103h6.798v-4.104c0-.781.525-1.463 1.275-1.66a18.47 18.47 0 0 0 4.806-2.004 1.688 1.688 0 0 1 2.065.263l2.875 2.901 4.807-4.85-2.874-2.9a1.727 1.727 0 0 1-.261-2.082 18.83 18.83 0 0 0 1.988-4.847 1.703 1.703 0 0 1 1.645-1.286h4.07zm3.398 27.425h10.198v3.428h-10.198z"/></g></g></svg>