<svg xmlns="http://www.w3.org/2000/svg" width="50" height="50" viewBox="0 0 50 50"><g><g><path fill="#006861" d="M25 38.91c7.682 0 13.91-6.23 13.91-13.913 0-7.558-6.028-13.71-13.539-13.907L30.028.507a25.033 25.033 0 0 0-4.53-.501h-6.51V11.09h5.64a12.901 12.901 0 0 1 .743 0L30.028.507c11.394 2.328 19.965 12.408 19.965 24.49 0 13.805-11.19 24.996-24.994 24.996-13.803 0-24.993-11.19-24.993-24.996V.006h11.083v24.991c0 7.684 6.228 13.913 13.91 13.913zm.5-19.904a6.006 6.006 0 0 1 5.51 5.991 5.982 5.982 0 0 1-.982 3.295 6.042 6.042 0 0 1-1.834 1.798 5.978 5.978 0 0 1-3.195.919 6.006 6.006 0 0 1-6.01-6.137 6.012 6.012 0 0 1 5.51-5.866zm-6.512 0v5.98c0-.038 0-.076.002-.114a6.012 6.012 0 0 1 5.51-5.866z"/></g></g></svg>