<svg xmlns="http://www.w3.org/2000/svg" width="17" height="17" viewBox="0 0 17 17"><g><g><path fill="#b6c6c5" d="M14.507 2.49a8.501 8.501 0 0 1 .007 12.02 8.506 8.506 0 0 1-10.317 1.32l-.017-.013c-1.283.968-2.657 1.134-3.615.985-.318-.05-.385-.48-.095-.622.876-.43 1.427-1.285 1.75-1.978l-.09-.07A8.501 8.501 0 0 1 2.488 2.49a8.496 8.496 0 0 1 12.02 0zM11.3 12.135c.28-.279.28-.618-.004-.908-.328-.332-.656-.66-.989-.99-.268-.267-.608-.267-.88 0-.204.206-.413.41-.614.62-.053.056-.103.07-.17.031-.134-.074-.275-.13-.402-.212-.601-.374-1.103-.858-1.545-1.402a3.574 3.574 0 0 1-.551-.884c-.028-.067-.021-.11.032-.162.208-.198.41-.403.61-.608.284-.286.284-.618 0-.904-.158-.163-.32-.322-.483-.484-.166-.166-.329-.332-.498-.498-.272-.265-.611-.269-.883 0-.209.204-.407.413-.619.614a1.02 1.02 0 0 0-.314.679c-.032.43.074.837.222 1.236.308.823.77 1.551 1.333 2.219a8.223 8.223 0 0 0 2.73 2.138c.478.233.976.413 1.513.44.367.022.692-.07.95-.36.177-.197.375-.374.562-.565zm-3.134-5.49a2.579 2.579 0 0 1 1.484.742c.385.385.636.87.728 1.403l.752-.131a3.335 3.335 0 0 0-.94-1.812 3.351 3.351 0 0 0-1.918-.958zm4.946 1.883a5.582 5.582 0 0 0-1.561-3.01 5.537 5.537 0 0 0-3.18-1.586l-.106.756c1.05.148 2 .621 2.75 1.37a4.822 4.822 0 0 1 1.345 2.601z"/></g></g></svg>
