<svg xmlns="http://www.w3.org/2000/svg" width="240" height="240" viewBox="0 0 240 240"><g><g><path fill="#fff" d="M23.22 216.78h7.742v7.742H23.22zm15.484 0h7.743v7.742h-7.743zm15.485 0h7.743v7.742h-7.743zm185.818-15.485v19.356c0 10.672-8.684 19.356-19.356 19.356H19.348c-10.672 0-19.355-8.684-19.355-19.356v-19.356h7.742V73.545c0-10.672 8.683-19.356 19.356-19.356h65.81c0-29.886 24.31-54.196 54.197-54.196 29.887 0 54.197 24.31 54.197 54.196h11.613c10.673 0 19.357 8.684 19.357 19.356v127.75zM200.675 61.932c-.378 2.644-.917 5.234-1.664 7.742h10.026c4.27 0 7.743 3.473 7.743 7.742v123.879h7.742V73.545c0-6.402-5.211-11.613-11.614-11.613zm-97.782-21.968a46.234 46.234 0 0 0-2.25 14.225c0 25.617 20.839 46.455 46.455 46.455 3.779 0 7.432-.503 10.952-1.36l-14.069-42.199zm62.512 56.905c16.534-7.119 28.147-23.564 28.147-42.68 0-11.417-4.158-21.867-11.018-29.964l-31.007 31.01zM147.098 7.735c-17.912 0-33.46 10.205-41.205 25.093l40.304 16.789 30.869-30.867c-8.1-6.857-18.55-11.015-29.968-11.015zm-131.62 193.56h7.742V77.416c0-4.27 3.472-7.742 7.742-7.742h64.223c-.751-2.508-1.286-5.098-1.664-7.742h-66.43c-6.402 0-11.613 5.211-11.613 11.613zm216.787 7.742h-23.228V77.417h-13.046c-8.721 18.28-27.328 30.97-48.893 30.97-21.566 0-40.171-12.69-48.893-30.97H30.962v123.878h59.67l1.131 1.134a22.418 22.418 0 0 0 15.958 6.608h24.554a22.413 22.413 0 0 0 15.958-6.608l1.134-1.134h51.928v7.742h-48.782c-5.566 5.006-12.688 7.743-20.234 7.743h-24.555c-7.545 0-14.668-2.737-20.234-7.743H7.735v11.614c0 6.402 5.212 11.613 11.613 11.613h201.303c6.402 0 11.614-5.211 11.614-11.613zm-42.583-46.454c6.401 0 11.613 5.212 11.613 11.613 0 6.403-5.212 11.614-11.613 11.614-6.403 0-11.614-5.211-11.614-11.614 0-1.203.236-2.346.58-3.442l-13.506-10.126a11.549 11.549 0 0 1-6.43 1.955c-2.246 0-4.326-.67-6.102-1.777l-21.681 17.347c.414 1.193.684 2.453.684 3.786 0 6.402-5.211 11.613-11.613 11.613-6.402 0-11.614-5.211-11.614-11.613 0-.979.159-1.92.391-2.83l-16.693-11.13c-1.938 1.456-4.32 2.347-6.925 2.347-2.605 0-4.987-.89-6.926-2.347L61.54 179.11c.233.91.392 1.847.392 2.83 0 6.402-5.212 11.613-11.614 11.613-6.402 0-11.614-5.211-11.614-11.613 0-6.402 5.212-11.613 11.614-11.613 2.605 0 4.987.89 6.926 2.345l16.693-11.13c-.233-.909-.392-1.846-.392-2.83 0-6.401 5.212-11.613 11.614-11.613 6.402 0 11.613 5.212 11.613 11.614 0 .983-.158 1.92-.39 2.83l16.692 11.13c1.94-1.452 4.32-2.346 6.926-2.346 2.245 0 4.325.669 6.101 1.776l21.681-17.347c-.413-1.192-.684-2.453-.684-3.786 0-6.402 5.212-11.613 11.614-11.613 6.402 0 11.613 5.211 11.613 11.613 0 1.204-.236 2.346-.58 3.442l13.506 10.126a11.549 11.549 0 0 1 6.43-1.954zM50.318 185.81a3.879 3.879 0 0 0 3.871-3.871 3.879 3.879 0 0 0-3.871-3.871 3.879 3.879 0 0 0-3.87 3.87 3.879 3.879 0 0 0 3.87 3.872zm34.84-23.227a3.879 3.879 0 0 0 3.872-3.871 3.879 3.879 0 0 0-3.871-3.871 3.88 3.88 0 0 0-3.872 3.87 3.88 3.88 0 0 0 3.872 3.872zM120 185.81a3.879 3.879 0 0 0 3.871-3.871 3.879 3.879 0 0 0-3.871-3.871 3.879 3.879 0 0 0-3.872 3.87A3.879 3.879 0 0 0 120 185.81zm38.712-30.97a3.879 3.879 0 0 0 3.87-3.87 3.879 3.879 0 0 0-3.87-3.872 3.879 3.879 0 0 0-3.871 3.871 3.879 3.879 0 0 0 3.871 3.872zm30.97 23.228a3.879 3.879 0 0 0 3.87-3.872 3.878 3.878 0 0 0-3.87-3.87 3.879 3.879 0 0 0-3.872 3.87 3.879 3.879 0 0 0 3.872 3.872zm-89.038-38.712h-61.94V85.159h61.94zM92.9 92.9H46.447v38.712h46.454zm-38.712 7.743h30.97v7.742h-30.97zm0 15.485h30.97v7.742h-30.97zm54.197 7.742h7.742v7.742h-7.742zm15.485 0h77.424v7.742h-77.424z"/></g></g></svg>