<svg xmlns="http://www.w3.org/2000/svg" width="234" height="240" viewBox="0 0 234 240"><g><g><path fill="#fff" d="M143.857 88.01c2.202 0 4 1.775 4 3.98a4.009 4.009 0 0 1-4 4.005h-99.89c-2.207 0-4-1.795-4-4.005 0-2.205 1.793-3.98 4-3.98zm-99.89-24.005c-2.207 0-4-1.8-4-4.005a4.008 4.008 0 0 1 4-4.005h39.956c2.203 0 4.001 1.8 4.001 4.005a4.012 4.012 0 0 1-4 4.005zM143.857 120c2.202 0 4 1.795 4 4.005a4.012 4.012 0 0 1-4 4.005h-99.89a4.005 4.005 0 0 1 0-8.01zm-31.98 31.99a4.005 4.005 0 0 1 0 8.01h-67.91a4.005 4.005 0 0 1 0-8.01zm-67.91 40c-2.207 0-4-1.775-4-3.98a4.005 4.005 0 0 1 4-4.005h55.934c2.202 0 4 1.795 4 4.005 0 2.205-1.798 3.98-4 3.98zm-35.954 40h107.865V240H.011V0h129.507l58.295 58.34v77.655h-8v-71.99h-55.934V8.01H8.013zM131.855 55.995h42.299L131.855 13.65zm98.661 92.655a11.85 11.85 0 0 1 3.496 8.44c0 3.185-1.248 6.19-3.496 8.435l-61.492 61.565-31.1 8.495-2.068 2.07a3.952 3.952 0 0 1-2.827 1.175c-.994 0-2.013-.39-2.792-1.155l-.075.02.015-.08a4.006 4.006 0 0 1 .04-5.625l2.068-2.07 8.47-31.11 61.492-61.565c4.51-4.51 12.372-4.51 16.877 0zm-63.58 69.2l40.93-40.955-16.951-16.975-40.935 40.96zm-25.381 8.44l17.695-4.825-12.876-12.87zm83.307-66.405a3.95 3.95 0 0 0 1.15-2.795 3.95 3.95 0 0 0-1.15-2.795l-11.397-11.385c-1.484-1.505-4.075-1.505-5.56 0l-11.337 11.35 16.937 16.97z"/></g></g></svg>