<svg xmlns="http://www.w3.org/2000/svg" width="241" height="235" viewBox="0 0 241 235"><g><g><path fill="#fff" d="M237.026 172.757c1.907.366 3.295 2.075 3.295 4.042v11.406c0 2.033-1.469 3.764-3.437 4.062l-6.173.968c-2.762.443-5.009 2.173-6.123 4.784-1.129 2.595-.87 5.453.697 7.806l3.356 5.01a4.154 4.154 0 0 1-.493 5.226l-7.968 8.069a4.04 4.04 0 0 1-5.284.401l-3.534-2.615c-2.263-1.71-5.187-2.05-7.806-.963a8.034 8.034 0 0 0-4.846 6.271l-.676 4.387c-.3 2.014-2.009 3.502-4.012 3.502h-11.284c-1.947 0-3.616-1.41-3.992-3.342l-1.114-5.953c-.533-2.795-2.344-4.989-4.947-6.013-2.599-1.046-5.421-.685-7.663 1.003l-5.05 3.723c-1.627 1.205-3.85 1.025-5.283-.401l-7.964-8.069c-1.373-1.405-1.591-3.599-.478-5.226l3.336-5.01c1.592-2.353 1.851-5.211.717-7.806-1.113-2.611-3.356-4.34-6.138-4.784l-6.158-.968c-1.983-.298-3.457-2.029-3.457-4.062v-11.406c0-1.967 1.393-3.676 3.3-4.042l5.878-1.143c2.761-.546 4.927-2.353 5.96-5.01 1.012-2.657.656-5.474-1.012-7.765l-3.676-5.087c-1.19-1.653-1.012-3.924.396-5.35l7.969-8.068a4.027 4.027 0 0 1 5.16-.5l6.398 4.382c2.283 1.55 5.024 1.854 7.567.788 2.542-1.066 4.291-3.239 4.81-5.979l1.45-7.682c.375-1.93 2.043-3.337 3.99-3.337h11.285c2.003 0 3.712 1.488 4.012 3.481l.93 6.251c.438 2.796 2.167 5.072 4.73 6.2 2.583 1.143 5.385.88 7.708-.706l4.943-3.398a4.031 4.031 0 0 1 5.166.5l7.964 8.068c1.434 1.426 1.592 3.697.417 5.35l-3.692 5.087c-1.668 2.291-2.029 5.108-.991 7.765 1.012 2.637 3.193 4.464 5.939 5.01zm-4.825 7.446l-2.584-.505c-5.461-1.066-9.951-4.83-11.98-10.076-2.044-5.273-1.292-11.102 2.008-15.669l1.628-2.235-3.138-3.156-2.166 1.488c-4.607 3.156-10.41 3.702-15.515 1.447-5.105-2.25-8.66-6.936-9.514-12.507l-.417-2.76h-4.409l-.833 4.345c-1.013 5.433-4.648 9.918-9.672 12.029a15.911 15.911 0 0 1-15.235-1.57l-3.616-2.472-3.142 3.156 1.632 2.235c3.295 4.567 4.053 10.416 2.003 15.669-2.023 5.247-6.513 9.01-11.975 10.076l-2.583.505v4.464l2.72.422c5.502.866 10.11 4.464 12.337 9.634 2.222 5.17 1.708 11.04-1.43 15.71l-1.469 2.189 3.138 3.182 2.202-1.653c4.49-3.316 10.271-4.104 15.453-2.029 5.187 2.05 8.92 6.596 9.972 12.126l.498 2.616h4.409l.143-.906c.854-5.69 4.505-10.417 9.768-12.61 5.268-2.214 11.147-1.489 15.754 1.91l.717.546 3.117-3.162-1.47-2.209a16.46 16.46 0 0 1-1.429-15.71c2.222-5.17 6.85-8.768 12.352-9.613l2.726-.443zm-44.754-19.253c11.202 0 20.34 9.253 20.34 20.597 0 11.364-9.138 20.596-20.34 20.596-11.223 0-20.34-9.232-20.34-20.596 0-11.344 9.117-20.597 20.34-20.597zm0 32.97c6.732 0 12.194-5.556 12.194-12.373 0-6.818-5.462-12.348-12.194-12.348-6.733 0-12.22 5.53-12.22 12.348 0 6.817 5.487 12.373 12.22 12.373zm-62.237-64.77c.163.185.26.324.26.324l.956 1.148v16.55c0 7.002-3.773 13.439-9.855 16.796l-36.288 20.055c-9.178 5.067-14.878 14.804-14.878 25.38v9.212h44.754c2.242 0 4.047 1.854 4.047 4.125 0 2.275-1.805 4.124-4.047 4.124H.31v-15.648c0-11.946 6.437-22.929 16.805-28.66L44.19 165.38c3.02-1.695 4.744-4.65 4.744-7.91v-11.28c-3.193-3.4-11.457-13.095-14.818-25.906a14.78 14.78 0 0 1-5.319-11.385V94.676c0-3.336 1.43-6.699 4.048-9.592V66.218c.04-.603 2.507-37.069 44.753-37.069 9.337 0 17.56 1.848 24.531 5.49.6-5.454 2.563-13.054 8.386-19.794C118.875 5.191 132.44.304 150.839.304c18.393 0 31.94 4.887 40.3 14.541 9.636 11.122 8.74 24.618 8.502 26.873v21.925c2.603 2.997 4.073 6.838 4.073 10.797v16.498c0 7.22-4.628 13.532-11.523 15.685a4.067 4.067 0 0 1-5.085-2.714c-.656-2.173.54-4.485 2.685-5.15 3.453-1.086 5.776-4.242 5.776-7.82V74.44c0-2.29-.95-4.464-2.72-6.05l-1.327-1.25.015-26.184c.02-.103 1.332-11.688-6.59-20.761-6.758-7.744-18.236-11.642-34.106-11.642-15.952 0-27.454 3.939-34.207 11.724-6.555 7.585-6.733 16.714-6.595 19.67l.122.103v27.09l-1.353 1.23c-1.75 1.606-2.72 3.78-2.72 6.07v16.498c0 2.775 1.408 5.35 3.752 6.895l1.389.906.3 1.329.08.303c0 .021.02.057.02.078a55.162 55.162 0 0 0 1.054 3.923l.274.984c.381 1.189.758 2.373 1.195 3.48.219.644.438 1.19.656 1.73.077.202.158.402.234.583.219.566.458 1.106.677 1.632l.198.463a53.437 53.437 0 0 0 1.332 2.853c.02.04.02.082.04.123l.2.381c3.335 6.74 6.793 11.344 7.723 12.549zm-6.93 4.407c-.753-1.004-1.908-2.657-3.255-4.747-.02-.062-.061-.098-.081-.14a99.467 99.467 0 0 1-2.009-3.3l-.254-.463a97.201 97.201 0 0 1-1.948-3.62c-.082-.139-.137-.263-.218-.422l-.32-.582a4.085 4.085 0 0 0-.22-.484 88.934 88.934 0 0 1-1.129-2.456c-.122-.237-.238-.459-.34-.721l-.254-.566c-.061-.16-.122-.34-.199-.5a76.103 76.103 0 0 1-1.057-2.616c-.118-.32-.254-.602-.377-.927a253.51 253.51 0 0 1-.814-2.311c-.136-.402-.258-.824-.396-1.247a5.473 5.473 0 0 1-.198-.623l-.341-1.106a56.867 56.867 0 0 1-.752-2.678c-.021-.098-.061-.2-.082-.32-1.587-1.287-2.817-2.878-3.814-4.587-1.428-2.472-2.283-5.268-2.283-8.203V74.44c0-3.96 1.47-7.8 4.073-10.797v-19.49c-6.473-4.505-14.68-6.78-24.414-6.78-34.42 0-36.546 27.897-36.607 29.086v22.162l-1.332 1.21c-1.744 1.586-2.74 3.357-2.74 4.845v14.222c0 2.214 1.133 4.264 3 5.49l1.388.906.38 1.647c3.18 14 14.005 24.422 14.102 24.52l1.292 1.226v14.783c0 6.277-3.377 12.007-8.798 15.01l-27.058 17.192c-7.963 4.408-12.768 12.616-12.768 21.544v7.4h48.801v-9.213c0-13.614 7.333-26.105 19.13-32.624l22.883-12.651 2.64-1.447 10.77-5.953c3.453-1.91 5.598-5.571 5.598-9.557z"/></g></g></svg>