<svg xmlns="http://www.w3.org/2000/svg" width="237" height="240" viewBox="0 0 237 240"><g><g><path fill="#fff" d="M236.581 109.074a4.69 4.69 0 0 1-1.208 1.619l-.027.034-113.338 127.709a4.693 4.693 0 0 1-7.018 0L1.652 110.727l-.027-.034a4.686 4.686 0 0 1-.447-6.65l40.898-46.255a4.692 4.692 0 0 1 3.515-1.584h145.816c1.345 0 2.625.577 3.515 1.584l40.898 46.255a4.686 4.686 0 0 1 .761 5.031zM84.703 102.46h67.591L118.5 68.48zm23.453-36.879h-54.25l20.845 33.587zm54.09 33.587l20.845-33.587h-54.25zM15.175 111.834l93.72 105.603-38.29-105.603zm139.855 33.037l-26.753 72.37 93.545-105.407H80.582l37.96 104.691 27.689-74.903a4.689 4.689 0 0 1 6.025-2.773 4.687 4.687 0 0 1 2.774 6.022zm16.212-42.413h50.66l-29.767-33.664zm-156.146 0h50.66L44.862 68.795zm98.712-73.635V4.674c0-2.588 2.1-4.687 4.69-4.687 2.59 0 4.69 2.099 4.69 4.688v24.15c0 2.588-2.1 4.687-4.69 4.687a4.689 4.689 0 0 1-4.69-4.688zm23.683 13.397a4.686 4.686 0 0 1 0-6.63l17.085-17.075a4.694 4.694 0 0 1 6.634 0 4.686 4.686 0 0 1 0 6.63L144.125 42.22a4.677 4.677 0 0 1-3.317 1.374c-1.2 0-2.4-.458-3.317-1.374zM74.874 25.145a4.686 4.686 0 0 1 0-6.63 4.693 4.693 0 0 1 6.634 0l17.084 17.077a4.686 4.686 0 0 1-3.316 8.003c-1.2 0-2.401-.458-3.317-1.374zm81.818 95.961a4.689 4.689 0 1 1 0 9.376 4.69 4.69 0 0 1 0-9.376z"/></g></g></svg>