<svg xmlns="http://www.w3.org/2000/svg" width="229" height="240" viewBox="0 0 229 240"><g><g><path fill="#fff" d="M90.637 30.557c-2.388 0-4.327-1.964-4.327-4.37 0-2.41 1.939-4.368 4.327-4.368h47.54c2.381 0 4.299 1.958 4.299 4.369 0 2.405-1.918 4.369-4.3 4.369zm-17.28 30.528c-2.409 0-4.327-1.957-4.327-4.369a4.317 4.317 0 0 1 4.327-4.341h82.099a4.334 4.334 0 0 1 4.326 4.341c0 2.412-1.944 4.37-4.326 4.37zm-8.654 30.557c-2.381 0-4.326-1.964-4.326-4.37 0-2.405 1.945-4.368 4.326-4.368h99.38c2.408 0 4.325 1.963 4.325 4.369 0 2.405-1.917 4.369-4.326 4.369zm-8.653 26.187c-2.382 0-4.3-1.964-4.3-4.37 0-2.41 1.918-4.368 4.3-4.368h116.685c2.382 0 4.327 1.958 4.327 4.369 0 2.405-1.945 4.369-4.327 4.369zm73.473 34.898c2.381 0 4.326 1.958 4.326 4.369 0 2.405-1.945 4.369-4.326 4.369h-30.26c-2.382 0-4.3-1.964-4.3-4.37 0-2.41 1.918-4.368 4.3-4.368zm8.653-21.818c2.382 0 4.3 1.958 4.3 4.369 0 2.405-1.918 4.369-4.3 4.369h-47.54c-2.387 0-4.326-1.964-4.326-4.369 0-2.411 1.939-4.37 4.327-4.37zm90.709 12.976c0 .044.016.087.016.103v91.642c0 2.41-1.918 4.369-4.3 4.369H4.212c-2.387 0-4.327-1.959-4.327-4.37v-91.64c0-.017.022-.06.022-.082.022-.513.103-1.004.297-1.473.038-.125.103-.235.168-.36.08-.169.167-.365.275-.556l37.369-54.992c.037-.044.08-.082.102-.126 6.395-22.478 9.307-43.614 9.307-66.752V4.37c0-2.411 1.918-4.37 4.327-4.37h120.984c2.382 0 4.327 1.959 4.327 4.37v9.758c0 22.903 2.7 43.849 8.648 65.389.151.168.318.278.443.469l41.992 61.532c.124.175.189.365.275.556.06.125.124.235.168.338.189.491.297.982.297 1.473zm-32.728-33.878a282 282 0 0 0 4.196 10.227l7.617 19.413h8.4zM56.05 19.647c0 31.555-5.148 59.422-16.896 91.511a207.818 207.818 0 0 1-3.041 8.182l-7.282 20.307h44.526c2.382 0 4.3 1.936 4.3 4.341 0 19.904 15.805 34.926 36.736 34.926 20.953 0 36.736-15.022 36.736-34.926a4.33 4.33 0 0 1 4.327-4.341h43.212l-6.287-16.047c-1.437-3.3-2.83-6.687-4.16-10.118-13.585-33.965-19.813-65.094-19.813-99.354v-5.39H56.05zm-43.634 120h7.217l8.124-22.587zm207.859 8.71h-60.709c-2.128 22.67-20.845 39.268-45.173 39.268-24.33 0-43.045-16.599-45.174-39.267H8.538v82.903h211.737z"/></g></g></svg>