<svg xmlns="http://www.w3.org/2000/svg" width="239" height="240" viewBox="0 0 239 240"><g><g><path fill="#fff" d="M77.299 158.94c1.335-1.978 4.005-2.49 5.944-1.106 1.945 1.385 2.425 4.11 1.068 6.068l-26.54 38.95a4.338 4.338 0 0 1-2.92 1.832 5.57 5.57 0 0 1-.604.038 4.056 4.056 0 0 1-2.692-.997l-20.467-17.123c-1.815-1.532-2.088-4.28-.587-6.155 1.506-1.848 4.198-2.126 6.008-.594l16.883 14.14zm159.145 19.506c4.358 8.39 2.858 18.552-3.712 25.279l-10.853 11.05c-13.352 13.65-28.099 20.508-43.999 20.508-4.508 0-9.074-.556-13.769-1.663-17.444-4.11-35.987-16.055-55.14-35.434-6.468 24.024-27.976 41.741-53.538 41.741-30.626 0-55.536-25.447-55.536-56.71 0-26.13 17.444-48.126 41.04-54.662-16.69-18.082-27.127-35.625-30.881-52.17-4.903-21.615 1.313-41.463 18.463-58.968l10.853-11.05c6.57-6.733 16.52-8.243 24.761-3.81 16.21 8.75 33.798 39.179 34.53 40.454 3.086 5.539 4.112 11.46 2.798 16.273-1.004 3.701-3.28 6.683-6.617 8.706-5.213 4.454-11.286 9.97-12.247 11.333-6.842 10.303-6.046 18.502 2.692 27.426l49.073 50.082c8.738 8.924 16.792 9.753 26.892 2.748 1.313-.96 6.718-7.174 11.077-12.5 1.981-3.385 4.924-5.73 8.535-6.75 4.775-1.318 10.43-.342 15.895 2.836 1.313.785 31.11 18.736 39.683 35.281zM55.433 231.194c24.056 0 43.918-18.546 46.653-42.336.08-.637.123-1.21.166-1.81.106-1.253.186-2.534.186-3.832 0-26.445-21.07-47.956-47.005-47.956-1.25 0-2.457.087-3.691.19-.603.045-1.17.088-1.816.175h-.08c-23.287 2.83-41.393 23.082-41.393 47.591 0 26.472 21.07 47.978 46.98 47.978zm171.248-33.646c3.92-3.98 4.796-10.03 2.21-15.013-7.45-14.376-36.115-31.646-36.403-31.815-3.317-1.935-6.826-2.682-9.347-1.957-1.528.426-2.692 1.407-3.568 2.96l-.438.66c-3.05 3.729-10.415 12.587-13.085 14.436-3.376 2.322-6.698 4.006-9.972 5.004 6.676 3.134 14.667 5.838 23.703 6.792 2.356.256 4.065 2.388 3.82 4.792-.23 2.235-2.089 3.898-4.257 3.898-.15 0-.294 0-.439-.022-29.46-3.107-48.757-22.209-49.553-23.038-.208-.19-.31-.447-.46-.681-.186-.19-.395-.365-.581-.556l-45.313-46.272c-.129-.065-.252-.109-.359-.19-.998-.835-24.098-20.574-27.185-50.895-.23-2.387 1.463-4.535 3.819-4.792a4.348 4.348 0 0 1 4.695 3.898c.796 7.943 3.252 15.095 6.302 21.271.897-3.788 2.65-7.664 5.255-11.628 1.816-2.725 10.495-10.242 14.127-13.35l.647-.447c1.543-.872 2.505-2.066 2.921-3.642.705-2.556-.021-6.132-1.944-9.583-.144-.256-17.086-29.514-31.149-37.113-4.881-2.644-10.805-1.729-14.725 2.278l-10.831 11.05c-15.147 15.46-20.445 32.07-16.189 50.83 3.691 16.272 14.667 33.858 32.628 52.322a44.712 44.712 0 0 1 4.423-.213c30.63 0 55.562 25.426 55.562 56.684 0 1.45-.064 2.938-.208 4.536l3.525 3.598c18.255 18.61 35.656 29.983 51.717 33.777 18.383 4.322 34.678-1.07 49.804-16.507z"/></g></g></svg>