<svg xmlns="http://www.w3.org/2000/svg" width="140" height="140" viewBox="0 0 140 140"><g><g><path fill="#fff" d="M70 0c38.66 0 70 31.34 70 70s-31.34 70-70 70S0 108.66 0 70 31.34 0 70 0z"/></g><g><path fill="#006861" d="M68.397 53.985c2.295 0 4.16 1.917 4.16 4.272 0 2.349-1.865 4.267-4.16 4.267s-4.158-1.918-4.158-4.267c0-2.355 1.863-4.272 4.158-4.272zm0 6.402c1.147 0 2.082-.958 2.082-2.13 0-1.178-.935-2.137-2.082-2.137-1.147 0-2.076.96-2.076 2.137 0 1.172.93 2.13 2.076 2.13zm11.44-6.402c2.295 0 4.158 1.917 4.158 4.272 0 2.349-1.863 4.267-4.158 4.267-2.294 0-4.159-1.918-4.159-4.267 0-2.355 1.865-4.272 4.159-4.272zm0 6.402c1.147 0 2.082-.958 2.082-2.13 0-1.178-.935-2.137-2.082-2.137-1.148 0-2.082.96-2.082 2.137 0 1.172.934 2.13 2.082 2.13zm11.44-6.402c2.296 0 4.158 1.917 4.158 4.272 0 2.349-1.862 4.267-4.158 4.267-2.296 0-4.158-1.918-4.158-4.267 0-2.355 1.862-4.272 4.158-4.272zm0 6.402c1.148 0 2.077-.958 2.077-2.13 0-1.178-.93-2.137-2.077-2.137-1.148 0-2.082.96-2.082 2.137 0 1.172.934 2.13 2.082 2.13zM79.32 38c11.754 0 21.314 8.847 21.314 19.719 0 10.873-9.56 19.72-21.32 19.72a22.59 22.59 0 0 1-8.53-1.647c-1.407.817-2.955 1.47-4.453 1.995v1.814c0 1.172-.513 2.27-1.392 3.01a11.953 11.953 0 0 1-3.798 6.05v2.922c0 .85 1.036 2.593 1.792 3.016l4.403 2.887a2.451 2.451 0 0 1 1.005 2.75c-.3 1.052-1.218 1.762-2.29 1.762H41.67c-1.066 0-1.99-.71-2.29-1.762a2.468 2.468 0 0 1 1.005-2.75l4.346-2.845c.813-.459 1.853-2.209 1.853-3.058v-2.922a11.96 11.96 0 0 1-3.798-6.05 3.93 3.93 0 0 1-1.395-3.01v-3.783c0-.975.426-2.136 1.035-2.907V69.99c-.01-.037-.314-3.45 2.133-6.22 1.975-2.247 5.107-3.383 9.302-3.383 1.64 0 3.112.193 4.433.548a18.302 18.302 0 0 1-.295-3.215C57.998 46.848 67.565 38 79.32 38zM64.254 78.449a42.303 42.303 0 0 1-4.925 1.11c-.006 0-.006.005-.01.005-.016 0-.021 0-.036.006-.041.005-.087.01-.097.01l-3.082.448 2.2-2.255c1.472-1.511 2.507-4.673 2.96-8.93.015-.187.04-.36.06-.547a18.913 18.913 0 0 1-2.442-4.955c-1.376-.541-3.062-.817-5.022-.817-3.564 0-6.174.89-7.738 2.651-1.832 2.058-1.625 4.69-1.625 4.715l.005 3.907-.34.318c-.346.319-.69 1.178-.69 1.704v3.783c0 .599.299 1.15.796 1.484l.355.235.098.421c.816 3.657 3.453 5.48 3.477 5.496l.463.318v4.033c0 1.62-1.452 4.089-2.875 4.886l-4.28 2.814c-.127.084-.173.203-.127.354.042.145.138.224.29.224h24.383a.283.283 0 0 0 .294-.224c.045-.15 0-.27-.127-.354l-4.346-2.85c-1.361-.761-2.813-3.23-2.813-4.85v-4.033l.466-.318c.026-.016 2.672-1.875 3.478-5.496l.097-.421.356-.235c.497-.333.797-.885.797-1.484zm15.066-3.14c10.606 0 19.233-7.894 19.233-17.59 0-9.694-8.627-17.582-19.233-17.582-10.607 0-19.24 7.888-19.24 17.583 0 1.5.218 2.98.624 4.413l.036.114a16.899 16.899 0 0 0 1.036 2.679c.182.375.387.744.6 1.104.03.052.056.104.086.156.239.401.497.792.771 1.172l.233.323-.035.401c-.229 2.788-.781 6.273-2.086 8.91l.512-.12.325-.08c.162-.04.34-.082.508-.13.152-.041.304-.077.457-.118.178-.048.355-.1.538-.158.158-.041.32-.088.483-.14.192-.057.39-.115.589-.183 1.812-.577 3.762-1.348 5.408-2.37 1.385-.874 3.01-1.943 3.436-2.276a1.02 1.02 0 0 1 1.356-.26c.31.186.509.541.509.91.005.569 0 .73-2.403 2.288 2.006.63 4.104.953 6.257.953z"/></g></g></svg>