<svg xmlns="http://www.w3.org/2000/svg" width="140" height="140" viewBox="0 0 140 140"><g><g><path fill="#fff" d="M70 0c38.66 0 70 31.34 70 70s-31.34 70-70 70S0 108.66 0 70 31.34 0 70 0z"/></g><g><path fill="#006861" d="M101.21 46.53c1.877 0 3.4 1.537 3.4 3.417v29.439c0 1.88-1.523 3.417-3.4 3.417H89.742v13.083c0 3.37-2.733 6.116-6.088 6.116H53.35c-3.354 0-6.088-2.746-6.088-6.116V44.113c0-3.37 2.734-6.115 6.088-6.115h30.305c3.355 0 6.088 2.746 6.088 6.115v2.416zm-13.593-2.417c0-2.193-1.778-3.979-3.962-3.979H53.35c-2.183 0-3.96 1.786-3.96 3.979v51.773c0 2.194 1.777 3.98 3.96 3.98h30.305c2.184 0 3.962-1.786 3.962-3.98zm4.253 36.554V48.665h-2.127v32.002zm4.247 0V48.665H93.99v32.002zm6.373-30.72c0-.703-.576-1.282-1.28-1.282h-2.973v32.002h2.972c.705 0 1.281-.579 1.281-1.281zm-2.126 4.052a1.067 1.067 0 0 1 0-2.136 1.068 1.068 0 0 1 0 2.136zm0 5.334a1.067 1.067 0 0 1 0-2.136 1.068 1.068 0 0 1 0 2.136zM52.572 47.597h31.861V61.47h-31.86zM54.7 59.333h27.607v-9.6H54.7zm-2.128-13.865a1.068 1.068 0 0 1 0-2.136h6.374a1.068 1.068 0 0 1 0 2.136zm1.064 18.13h8.493v7.47h-8.493zm2.12 5.334h4.254v-3.198h-4.254zm8.5-5.334h8.494v7.47h-8.494zm2.12 5.334h4.253v-3.198h-4.253zm8.5-5.334h8.494v7.47h-8.494zm2.12 5.334h4.254v-3.198h-4.253zm-23.36 3.204h8.493v7.463h-8.493zm2.12 5.334h4.254v-3.205h-4.254zm8.5-5.334h8.494v7.463h-8.494zm2.12 5.334h4.253v-3.205h-4.253zm8.5-5.334h8.494v7.463h-8.494zm2.12 5.334h4.254v-3.205h-4.253zm-23.36 3.197h8.493v7.47h-8.493zm2.12 5.334h4.254v-3.198h-4.254zm8.5-5.334h8.494v7.47h-8.494zm2.12 5.334h4.253v-3.198h-4.253zm-12.74 4.265h8.493v7.47h-8.493zm2.12 5.334h4.254v-3.198h-4.254zm8.5-5.334h8.494v7.47h-8.494zm2.12 5.334h4.253v-3.198h-4.253zm8.5-14.933h8.494v17.069h-8.494zm2.12 14.933h4.254V82.803h-4.253zM65.724 50.879c.26.109.467.317.576.579a1.1 1.1 0 0 1 .077.405v5.333c0 .595-.47 1.068-1.057 1.068a1.063 1.063 0 0 1-1.063-1.068V54c-.274 0-.544-.104-.753-.312a1.074 1.074 0 0 1 0-1.51l1.064-1.064c.098-.098.212-.177.342-.234a1.1 1.1 0 0 1 .814 0zm9.557 0a1.076 1.076 0 0 1 .66.984v5.333a1.064 1.064 0 1 1-2.127 0V54c-.27 0-.544-.104-.751-.312a1.07 1.07 0 0 1 0-1.51l1.061-1.064c.1-.098.214-.177.348-.234.26-.104.55-.104.809 0zm4.248 0a1.08 1.08 0 0 1 .658.984v5.333a1.064 1.064 0 1 1-2.126 0V54c-.27 0-.545-.104-.752-.312a1.072 1.072 0 0 1 0-1.51l1.064-1.064a1.14 1.14 0 0 1 .346-.234c.26-.104.55-.104.81 0zm-9.651 4.5a1.056 1.056 0 0 1 1.499 0c.415.418.415 1.09 0 1.505l-1.058 1.068a1.061 1.061 0 0 1-1.505 0 1.068 1.068 0 0 1 0-1.505z"/></g></g></svg>