<svg xmlns="http://www.w3.org/2000/svg" width="140" height="140" viewBox="0 0 140 140"><g><g><path fill="#fff" d="M70 0c38.66 0 70 31.34 70 70s-31.34 70-70 70S0 108.66 0 70 31.34 0 70 0z"/></g><g><path fill="#006861" d="M100.545 74.361v18.902c0 2.472-1.89 4.362-4.363 4.362H43.818c-2.473 0-4.364-1.89-4.364-4.362V74.361c0-.872.582-1.454 1.455-1.454.873 0 1.454.582 1.454 1.454v18.902c0 .872.582 1.454 1.455 1.454h52.364c.872 0 1.454-.582 1.454-1.454V74.361c0-.872.582-1.454 1.454-1.454.873 0 1.455.582 1.455 1.454zM102 56.914v9.306c0 2.035-1.455 3.78-3.345 4.216l-22.837 5.089v4.652c0 .873-.582 1.454-1.455 1.454h-8.727c-.872 0-1.454-.581-1.454-1.454v-4.652l-22.837-5.089C39.455 70 38 68.255 38 66.22v-9.306c0-2.471 1.892-4.362 4.364-4.362h55.273c2.473 0 4.364 1.89 4.364 4.362zM72.909 72.907H67.09v5.816h5.818zM99.09 56.914c0-.872-.581-1.454-1.454-1.454H42.363c-.872 0-1.454.582-1.454 1.454v9.306c0 .726.436 1.308 1.164 1.454l22.109 4.943v-1.164c0-.872.582-1.453 1.454-1.453h8.727c.873 0 1.455.581 1.455 1.453v1.164l22.11-4.943c.727-.146 1.162-.728 1.162-1.454zM58.363 48.19v-1.454c0-2.47 1.892-4.361 4.364-4.361h14.545c2.473 0 4.364 1.89 4.364 4.361v1.454c0 .873-.582 1.454-1.454 1.454-.873 0-1.455-.581-1.455-1.454v-1.454c0-.872-.582-1.454-1.455-1.454H62.727c-.873 0-1.455.582-1.455 1.454v1.454c0 .873-.582 1.454-1.454 1.454-.873 0-1.455-.581-1.455-1.454z"/></g></g></svg>