<svg xmlns="http://www.w3.org/2000/svg" width="140" height="140" viewBox="0 0 140 140"><g><g><path fill="#fff" d="M70 0c38.66 0 70 31.34 70 70s-31.34 70-70 70S0 108.66 0 70 31.34 0 70 0z"/></g><g><path fill="#006861" d="M68.751 44.25c0-.691.557-1.25 1.248-1.25.692 0 1.25.558 1.25 1.25 0 .739-.634 1.316-1.374 1.242a1.245 1.245 0 0 1-1.124-1.242zm27.498 2.5v20.398c0 16.246-10.697 30.241-25.89 34.8a1.249 1.249 0 0 1-.718 0c-15.53-4.658-25.892-18.902-25.892-34.8V46.75c0-.69.56-1.25 1.25-1.25a6.257 6.257 0 0 0 6.25-6.25c0-.69.56-1.25 1.25-1.25h35c.69 0 1.25.56 1.25 1.25A6.257 6.257 0 0 0 95 45.5c.69 0 1.25.56 1.25 1.25zm-2.5 1.16a8.77 8.77 0 0 1-7.41-7.41H53.66a8.77 8.77 0 0 1-7.411 7.41v19.238A33.799 33.799 0 0 0 70 99.443c14.222-4.433 23.75-17.364 23.75-32.295zm-3.248 1.651c.455.2.749.648.749 1.145v16.442c0 13.413-8.3 25.086-20.833 29.521a1.247 1.247 0 0 1-.834 0C57.039 92.23 48.75 80.55 48.75 67.15V50.705c0-.496.294-.946.748-1.145a11.263 11.263 0 0 0 5.813-5.813A1.25 1.25 0 0 1 56.456 43h8.546a1.25 1.25 0 0 1 0 2.5h-7.756a13.743 13.743 0 0 1-5.997 5.997v15.651c0 12.234 7.345 22.788 18.75 27.014 11.407-4.225 18.75-14.78 18.75-27.014V51.497a13.742 13.742 0 0 1-5.996-5.997h-7.756a1.25 1.25 0 1 1 0-2.5h8.546c.497 0 .946.294 1.145.748a11.261 11.261 0 0 0 5.813 5.813zM70 56.25c6.204 0 11.25 5.046 11.25 11.25 0 6.203-5.046 11.25-11.25 11.25-6.203 0-11.25-5.047-11.25-11.25 0-6.204 5.047-11.25 11.25-11.25zm0 2.5c-4.824 0-8.75 3.925-8.75 8.75s3.926 8.75 8.75 8.75c4.825 0 8.75-3.925 8.75-8.75s-3.925-8.75-8.75-8.75zm-1.25 10.732l5.367-5.366a1.25 1.25 0 0 1 1.768 1.768l-6.25 6.25a1.248 1.248 0 0 1-1.768 0l-2.5-2.5a1.25 1.25 0 0 1 1.767-1.768z"/></g></g></svg>