<svg xmlns="http://www.w3.org/2000/svg" width="140" height="140" viewBox="0 0 140 140"><g><g><path fill="#fff" d="M70 0c38.66 0 70 31.34 70 70s-31.34 70-70 70S0 108.66 0 70 31.34 0 70 0z"/></g><g><path fill="#006861" d="M104.603 99.15a1.189 1.189 0 1 1 0 2.377H35.396a1.189 1.189 0 0 1 0-2.376V52.728H49.71V99.15h3.584V62.253H67.61v36.898h3.584V71.772H85.51v27.379h3.585V82.482h14.315v16.669zm-57.274 0V55.112h-9.55v44.04zm17.899 0V64.63h-9.55v34.52zm17.9 0V74.156h-9.551v24.996zm17.898 0V84.867h-9.55V99.15zM48.261 39.77a1.186 1.186 0 0 1-.437-1.628 1.203 1.203 0 0 1 1.632-.436l43.278 24.925-2.708-5.938a1.192 1.192 0 1 1 2.167-.99l4.253 9.322c.011.03.011.058.024.094.024.058.04.122.052.192.006.028.023.058.03.086 0 .018-.007.03-.007.04.007.048 0 .088-.005.134a.716.716 0 0 1-.03.192c-.01.047-.01.094-.023.14-.017.04-.041.076-.058.116-.018.036-.018.064-.035.094-.023.04-.053.068-.08.104a1.022 1.022 0 0 1-.055.076c-.016.016-.028.028-.04.046a1.13 1.13 0 0 1-.28.22c-.017.006-.028.006-.04.018h-.013c-.01.006-.022.018-.034.024-.012.012-.034.006-.046.012-.094.034-.18.062-.28.074-.017 0-.029.018-.052.018l-10.215.988c-.04 0-.08.006-.117.006a1.191 1.191 0 0 1-.116-2.378l6.514-.627z"/></g></g></svg>