<svg xmlns="http://www.w3.org/2000/svg" width="140" height="140" viewBox="0 0 140 140"><g><g><path fill="#fff" d="M70 0c38.66 0 70 31.34 70 70s-31.34 70-70 70S0 108.66 0 70 31.34 0 70 0z"/></g><g><path fill="#006861" d="M104.067 76.103a3.26 3.26 0 0 1 0 4.506L88.11 97.026l-8.063 2.26-.536.557a1.028 1.028 0 0 1-.735.312c-.263 0-.52-.104-.723-.306l-.02.005.004-.022a1.092 1.092 0 0 1 .006-1.5l.541-.551 2.197-8.298 15.956-16.415a3.031 3.031 0 0 1 4.374 0zM87.574 94.562l10.621-10.927-4.4-4.526-10.62 10.926zm-6.591 2.25l4.591-1.286-3.335-3.439zm21.615-17.714c.4-.405.4-1.077.006-1.484l-2.956-3.041a1.014 1.014 0 0 0-1.45 0l-2.94 3.03 4.399 4.527zM56.701 99.863h15.55v2.136H46.333V38.001h47.69V70h-2.075V40.136H56.7zm-2.076 0V40.136h-6.216v59.727zm7.26-36.264V48.667h24.879V63.6zm2.075-2.13h20.734V50.803H63.96zm3.107-8.537H81.58v2.136H67.067zm14.513 6.401H67.067"/></g></g></svg>