<svg xmlns="http://www.w3.org/2000/svg" width="140" height="140" viewBox="0 0 140 140"><g><g><path fill="#fff" d="M70 0c38.66 0 70 31.34 70 70s-31.34 70-70 70S0 108.66 0 70 31.34 0 70 0z"/></g><g><path fill="#006861" d="M105.695 59.793v8.289c-.006 2.233-2.87 3.98-7.14 5.286v7.746c0 .37-.081.723-.232 1.065 2.456 1.011 3.7 2.227 3.782 3.678h.023v8.289c-.012 3.939-8.923 6.385-18.824 7.531-.07.01-.139.04-.214.04-.024 0-.042-.012-.065-.012-1.91.215-3.852.382-5.769.504-.04 0-.076.024-.116.024-.024 0-.041-.013-.064-.013-2.435.144-4.833.22-7.077.22-2.242 0-4.64-.076-7.076-.22-.022 0-.04.013-.064.013-.04 0-.075-.018-.116-.024a119.626 119.626 0 0 1-5.77-.504c-.021.006-.039.018-.063.018-.076 0-.144-.03-.214-.046-9.901-1.14-18.813-3.586-18.825-7.525v-8.295h.018c.018-.25.076-.498.163-.735-2.324-1.11-3.742-2.435-3.747-4.002v-8.295h.012c.115-1.99 2.45-3.551 7.128-4.755v-8.277h.016c.012-.202.048-.399.106-.596-4.34-1.313-7.257-3.077-7.262-5.328v-8.287h.017c.43-6.906 28.845-7.11 32.11-7.11 3.26 0 31.675.204 32.106 7.11h.016v8.287c0 .382-.092.753-.256 1.107 4.846 1.208 7.263 2.792 7.385 4.817zm-9.65 21.709a.752.752 0 0 0 .134-.388v-4.906c-.953.597-2.156 1.14-3.574 1.632v5.645c1.371-.532 2.411-1.081 3.039-1.63zm-26.61 5.5c.739-.017 1.46-.04 2.18-.069.256-.011.512-.024.768-.041v-5.911c-1.192.051-2.395.093-3.591.109l-.188.006-.98.018v5.917c.429-.006.865-.006 1.29-.018.174-.006.348-.006.522-.012zm-5.193.017c.099 0 .204.006.308.006.226.006.46.006.692.006v-5.917l-.982-.018h-.192a119.382 119.382 0 0 1-3.584-.115v5.911c.638.035 1.283.058 1.927.081l.204.006c.535.018 1.082.028 1.627.04zm-21.495-2.7l.441.12c.918.25 1.923.492 3.015.723v-5.777a52.726 52.726 0 0 1-3.567-.822v5.72l.11.035zm25.08 9.809h-.186a124.6 124.6 0 0 1-3.59-.115v5.917c1.527.076 3.114.121 4.757.133v-5.917l-.981-.018zm4.531 0h-.185c-.332.006-.657.012-.982.012v5.923c1.644-.012 3.23-.064 4.758-.14v-5.91c-1.191.051-2.387.092-3.59.115zm9.54-.537c-1.174.11-2.365.207-3.566.283v5.91a99.238 99.238 0 0 0 3.566-.312zm2.383 5.604a90.99 90.99 0 0 0 3.566-.543v-5.82c-1.15.186-2.34.353-3.566.504zm5.949-1a49.95 49.95 0 0 0 3.566-.88v-5.72c-1.109.294-2.306.567-3.566.815zM49.77 92.41a53.068 53.068 0 0 1-3.567-.816v5.72c1.057.307 2.254.604 3.566.88zm2.382 6.242c1.122.195 2.313.376 3.567.543v-5.859a77.843 77.843 0 0 1-3.567-.503zm5.95.82a99.03 99.03 0 0 0 3.566.313V93.88a141.16 141.16 0 0 1-3.567-.29zM55.15 86.504c.964.093 1.95.175 2.95.249v-5.906c-1.207-.08-2.399-.173-3.566-.288v5.883c.08.01.168.016.254.028.118.011.24.024.362.034zm-2.999-6.2a77.131 77.131 0 0 1-3.566-.504v5.82c1.12.197 2.31.376 3.566.543zm23.401 6.39c.17-.01.344-.027.518-.04.773-.063 1.522-.138 2.26-.212v-5.883c-1.174.115-2.364.207-3.573.288v5.906c.268-.017.535-.04.795-.058zm5.154-.53a76.62 76.62 0 0 0 3.574-.544V79.8a78.962 78.962 0 0 1-3.574.504zm5.95-1.002c1.318-.277 2.51-.572 3.573-.88v-5.72a52.967 52.967 0 0 1-3.574.816zM70.388 73.971c.087 0 .175 0 .262.006.562.01 1.15.016 1.725.022v-5.917c-.325-.006-.65-.006-.981-.012-.06-.006-.123-.006-.187-.006a120.738 120.738 0 0 1-3.591-.116v5.918a120.636 120.636 0 0 0 2.772.105zM42.636 57.04c.406.115.836.237 1.284.346.592.157 1.208.303 1.841.44.146.03.296.058.442.093v-5.784a56.838 56.838 0 0 1-3.567-.815zm21.624-3.187h-.192a151.673 151.673 0 0 1-3.584-.115v5.911c1.562.075 3.155.115 4.758.133v-5.917c-.332 0-.657-.006-.982-.012zm4.34 0c-.326.006-.651.012-.983.012v5.917c.431 0 .865-.006 1.291-.012.128-.006.256-.006.382-.011.826-.018 1.64-.04 2.441-.076.018-.006.036-.006.046-.006l.606-.034v-5.905c-1.198.051-2.395.086-3.591.11zm27.306.59c.173-.203.273-.399.273-.578v-4.9c-.953.596-2.156 1.139-3.574 1.626v5.64c1.238-.48 2.203-.972 2.83-1.458l.436-.337zm-15.2 4.465a85.185 85.185 0 0 0 3.575-.543v-5.807a87.988 87.988 0 0 1-3.574.497zm5.95-1a54.465 54.465 0 0 0 3.574-.88V51.32a56.987 56.987 0 0 1-3.574.815zm-8.324-4.594c-1.175.111-2.365.21-3.574.29v5.9a117.61 117.61 0 0 0 3.574-.312zm-23.797 5.878c1.161.12 2.359.22 3.566.306v-5.893c-1.207-.082-2.399-.18-3.566-.291zm-2.383-6.137a85.783 85.783 0 0 1-3.566-.497v5.818c.127.023.254.047.388.069a86.783 86.783 0 0 0 2.464.376c.232.035.476.058.714.088zm12.794 20.649l.296.018v-5.907c-1.21-.08-2.4-.173-3.574-.288v5.883c.036.005.064.011.1.011.15.017.308.035.463.046.728.076 1.472.14 2.232.197.163.01.32.023.483.04zm-7.862-.885c.03 0 .054.006.082.011.685.104 1.395.21 2.127.301v-5.86a85.216 85.216 0 0 1-3.574-.497v5.808c.453.081.895.163 1.365.237zm-3.74-6.467a52.366 52.366 0 0 1-3.575-.821v5.703c1.064.307 2.255.608 3.574.892zm-5.95-1.544c-1.417-.492-2.62-1.035-3.574-1.63v4.904c.006.04.018.075.024.115l.082.133c.388.654 1.597 1.39 3.468 2.106zM75.74 68.07c-.324.006-.65.006-.981.012v5.911c1.609-.016 3.196-.058 4.758-.133v-5.912c-1.19.059-2.387.094-3.585.116zm15.565 4.542c.041-.007.076-.018.116-.024v-5.814a85.042 85.042 0 0 1-3.573.498v5.853c.308-.04.622-.074.924-.115.314-.046.633-.092.947-.14.54-.08 1.064-.173 1.586-.258zm-8.053 1.01a103.842 103.842 0 0 0 2.213-.22v-5.875c-1.167.115-2.358.208-3.566.288v5.901c.448-.035.906-.058 1.353-.093zm13.596-2.22c.174-.052.348-.098.522-.144v-5.727a52.246 52.246 0 0 1-3.573.821v5.778c.093-.016.192-.04.284-.057.309-.069.612-.133.908-.202a53.627 53.627 0 0 0 1.859-.47zm6.455-11.528c-.134-.492-1.541-1.752-6.868-2.898-.069.046-.157.094-.232.14-.134.081-.279.167-.418.248-.129.07-.244.144-.372.213-.296.158-.616.307-.948.458a22.51 22.51 0 0 1-1.238.51c-.07.021-.133.05-.203.073-.4.146-.812.29-1.242.43-.145.046-.303.085-.453.131-.244.076-.494.152-.756.227-5.571 1.584-13.583 2.608-22.228 2.74a106.318 106.318 0 0 1-4.601-.015 137.125 137.125 0 0 1-4.428-.181c-.01 0-.016.006-.022.006-.018 0-.03-.01-.047-.01-2.022-.122-3.998-.29-5.896-.504h-.007c-.011 0-.018-.006-.03-.006-2.788-.318-5.407-.734-7.772-1.238a69.933 69.933 0 0 1-1.43-.318c-.08-.024-.169-.04-.249-.058-.018.028-.018.046-.024.07.14.798 1.963 1.863 5.205 2.858 4.213 1.295 10.801 2.48 19.144 2.85.43.018.853.036 1.29.047l1.075.034c.987.024 1.986.035 3.014.035 1.035 0 2.035-.011 3.016-.035.367-.011.72-.017 1.08-.03.43-.015.86-.033 1.285-.051 8.349-.37 14.937-1.555 19.149-2.846 3.265-1.005 5.095-2.076 5.206-2.88zm-36.87-19.029c-19.62 0-29.543 3.07-29.728 4.835.14.803 1.97 1.862 5.199 2.858 4.212 1.295 10.8 2.481 19.149 2.845l1.285.052c.36.012.714.024 1.08.028.981.024 1.98.042 3.016.042 1.028 0 2.028-.018 3.015-.042.36-.004.714-.016 1.075-.028l1.29-.052c8.342-.364 14.93-1.55 19.143-2.845 3.23-.996 5.06-2.055 5.206-2.858-.187-1.764-10.11-4.835-29.73-4.835zM36.688 53.87c0 .667 1.254 1.534 3.567 2.396v-5.674c-1.418-.487-2.62-1.03-3.567-1.626zm5.763 16.394c-4.416 1.075-5.619 2.192-5.753 2.637.106.804 1.936 1.875 5.206 2.88 4.212 1.296 10.8 2.482 19.149 2.852.426.018.85.036 1.285.046l1.08.035c.981.023 1.98.035 3.016.035.772 0 1.522-.012 2.271-.023l.884-.017c.272-.006.54-.018.807-.024 9.017-.289 16.117-1.533 20.561-2.904 1.47-.45 2.655-.92 3.52-1.365-3.992.857-8.708 1.453-13.74 1.747-.012 0-.017.006-.03.006h-.015c-1.512.087-3.045.151-4.602.18a90.03 90.03 0 0 1-2.523.035c-.714 0-1.445-.012-2.19-.03-1.684-.03-3.328-.092-4.943-.185h-.006-.006c-5.014-.295-9.621-.885-13.473-1.7a39.08 39.08 0 0 1-.942-.203 4.804 4.804 0 0 0-.295-.063c-4.2-.961-7.571-2.25-9.197-3.887-.023-.018-.047-.036-.064-.052zm-5.763 10.85c0 .596 1.004 1.354 2.875 2.123l.012-.01.68.259V77.84c-1.418-.492-2.62-1.035-3.567-1.632zm3.567 13.033c0 .665 1.255 1.532 3.566 2.394v-5.668c-1.411-.492-2.613-1.036-3.566-1.632zm55.925 2.394c2.312-.862 3.567-1.73 3.567-2.4v-4.9c-.954.596-2.155 1.14-3.567 1.632zm3.55-10.591c-.076-.3-.72-1.047-3.074-1.88-.104.076-.232.146-.348.22a6.38 6.38 0 0 1-.384.238c-.105.063-.215.126-.326.19-2.09 1.151-5.13 2.083-8.645 2.8a57.778 57.778 0 0 1-1.381.267c-1.86.346-3.865.646-5.98.89-.022 0-.046.011-.07.011H79.5c-1.9.215-3.876.388-5.915.515h-.022a124.087 124.087 0 0 1-7.13.208c-.492 0-.999 0-1.504-.011a128.389 128.389 0 0 1-5.635-.197h-.006c-5.973-.352-11.505-1.14-15.838-2.245a16.941 16.941 0 0 1-.58-.15c-.129-.029-.256-.069-.384-.104a32.614 32.614 0 0 1-.988-.283l-.116-.036a34.647 34.647 0 0 1-1.097-.358c.226.792 2.044 1.823 5.193 2.789 4.206 1.295 10.795 2.481 19.143 2.845l1.295.052c.355.012.708.024 1.07.03.982.022 1.987.04 3.014.04 1.029 0 2.028-.018 3.016-.034l1.075-.036c.436-.011.86-.028 1.29-.046 8.347-.37 14.936-1.556 19.143-2.851 3.248-1.002 5.077-2.065 5.205-2.864zm.017-15.473c2.312-.862 3.566-1.73 3.566-2.394v-4.904c-.946.595-2.15 1.138-3.566 1.63z"/></g></g></svg>