<svg xmlns="http://www.w3.org/2000/svg" width="140" height="140" viewBox="0 0 140 140"><g><g><path fill="#fff" d="M70 0c38.66 0 70 31.34 70 70s-31.34 70-70 70S0 108.66 0 70 31.34 0 70 0z"/></g><g><path fill="#006861" d="M99.863 46.53v42.667h1.068a1.068 1.068 0 0 1 0 2.136H71.068v2.136c0 .046-.027.093-.032.14 1.854.469 3.23 2.13 3.23 4.125A4.268 4.268 0 0 1 70 101.999a4.267 4.267 0 0 1-4.265-4.265c0-1.995 1.374-3.656 3.229-4.126-.006-.046-.032-.093-.032-.14v-2.136H39.068a1.069 1.069 0 0 1 0-2.135h1.069V46.53H38V38H102v8.53zM72.136 97.735A2.139 2.139 0 0 0 70 95.598a2.139 2.139 0 0 0-2.136 2.136c0 1.177.959 2.129 2.136 2.129a2.133 2.133 0 0 0 2.136-2.13zm-32-53.332h59.727v-4.266H40.137zm57.598 2.129H42.266v42.666h55.468zm-45.87 23.6a5.348 5.348 0 0 1-4.265-5.23c0-.59.48-1.062 1.068-1.062.588 0 1.068.473 1.068 1.062a3.203 3.203 0 0 0 3.197 3.203c.943 0 1.833-.411 2.443-1.135a1.54 1.54 0 0 0 .355-1.177 1.724 1.724 0 0 0-.662-1.194L49.49 60.26a3.9 3.9 0 0 1-1.474-2.661 3.655 3.655 0 0 1 .844-2.776 5.317 5.317 0 0 1 3.004-1.776v-.943c0-.588.48-1.068 1.068-1.068.59 0 1.068.48 1.068 1.068v.937a5.341 5.341 0 0 1 4.266 5.224 1.066 1.066 0 1 1-2.13 0 3.204 3.204 0 0 0-3.204-3.197c-.943 0-1.833.41-2.442 1.135-.276.324-.402.74-.354 1.177.047.47.29.907.661 1.193l5.578 4.344a3.864 3.864 0 0 1 1.48 2.65 3.704 3.704 0 0 1-.85 2.782A5.327 5.327 0 0 1 54 70.125v.943a1.07 1.07 0 0 1-1.068 1.068 1.07 1.07 0 0 1-1.068-1.068zm24.537-8.662a1.069 1.069 0 0 1 0-2.136h14.931v-4.265h-7.468c-.589 0-1.062-.48-1.062-1.068 0-.588.473-1.068 1.062-1.068h7.468v-2.129c0-.595.479-1.068 1.068-1.068.589 0 1.068.473 1.068 1.068v33.06c0 .595-.48 1.068-1.068 1.068-.59 0-1.068-.473-1.068-1.068v-2.129h-7.468c-.589 0-1.062-.48-1.062-1.068 0-.588.473-1.068 1.062-1.068h7.468v-5.333h-4.265a1.065 1.065 0 1 1 0-2.13h4.265v-4.271H79.598a1.064 1.064 0 1 1 0-2.13h11.734V61.47zM48.667 83.863h8.53m4.579-1.822c.396-.396 1.12-.396 1.516 0 .192.204.307.48.307.761 0 .276-.115.552-.307.755-.204.192-.48.306-.762.306-.275 0-.551-.114-.754-.306a1.096 1.096 0 0 1-.307-.755c0-.281.115-.557.307-.761zm-2.442-3.51a1.065 1.065 0 1 1 0-2.13h3.196c.595 0 1.069.473 1.069 1.068a1.06 1.06 0 0 1-1.069 1.061zm-10.667 0a1.065 1.065 0 1 1 0-2.13h2.136a1.06 1.06 0 0 1 1.061 1.068 1.06 1.06 0 0 1-1.061 1.061zm5.64-1.823c.406-.396 1.12-.396 1.516 0 .193.204.313.48.313.76 0 .277-.12.553-.313.755a1.113 1.113 0 0 1-.755.307c-.276 0-.557-.104-.761-.307A1.114 1.114 0 0 1 54 77.47c0-.292.115-.557.307-.761z"/></g></g></svg>