<svg xmlns="http://www.w3.org/2000/svg" width="141" height="141" viewBox="0 0 141 141"><g><g><path fill="#3698b1" d="M70.5 0C109.435 0 141 31.564 141 70.5S109.436 141 70.5 141C31.562 141 0 109.436 0 70.5S31.563 0 70.5 0z"/></g><g><path fill="#fff" d="M54.4 66.63a3.736 3.736 0 0 1 3.733 3.734 3.739 3.739 0 0 1-3.734 3.734 3.74 3.74 0 0 1-3.739-3.734 3.737 3.737 0 0 1 3.74-3.735zm0 5.332c.88 0 1.6-.718 1.6-1.598a1.6 1.6 0 0 0-1.6-1.6c-.887 0-1.606.714-1.606 1.6 0 .88.72 1.598 1.605 1.598zm48.593 2.136c0 3.162-2.315 5.792-5.345 6.303 0 .03.005.061.005.093 0 4.927-1.594 9.276-4.42 12.765l1.246 3.536a4.592 4.592 0 0 1-.59 4.24 4.605 4.605 0 0 1-3.8 1.964h-6.423a2.828 2.828 0 0 1-2.722-2.021v-.016c-2.811.786-5.898 1.204-9.204 1.204-4.034 0-7.825-.538-11.23-1.538l-.391.98a2.209 2.209 0 0 1-2.06 1.391h-7.194a4.343 4.343 0 0 1-4.036-5.953l1.476-3.683c-1.46-1.62-2.618-3.426-3.4-5.401h-.662c-3.285 0-5.246-2.51-5.246-6.713V77.4c0-4.136 1.914-6.505 5.246-6.505h1.345c.5-3.453 1.016-5.792 3.8-8.666-.182-.454-.35-.913-.516-1.36-.651-1.793-1.272-3.48-2.721-4.178a1.444 1.444 0 0 1-.808-1.562 1.44 1.44 0 0 1 1.266-1.193c2.727-.302 5.772.345 10.455 2.209.672-.26 1.517-.563 2.471-.875a13.069 13.069 0 0 1-.333-2.938c0-7.354 5.99-13.332 13.348-13.332 7.36 0 13.347 5.978 13.347 13.332 0 1.432-.24 2.845-.689 4.183 4.62 2.646 8.077 6.51 10.08 11.26.249-.041.5-.079.765-.079.12 0 .235.027.355.038.063-.011.115-.038.178-.038.912 0 1.772.193 2.559.538a5.49 5.49 0 0 0-.36-1.172 1.06 1.06 0 0 1 .537-1.407c.538-.245 1.168 0 1.409.536a7.456 7.456 0 0 1 .62 3.641 6.369 6.369 0 0 1 1.642 4.265zm-6.548 1.027a2.665 2.665 0 0 0 2.272-2.63 2.672 2.672 0 0 0-2.67-2.667c-.344 0-.672.073-.978.192l-.011.005c-.08.032-.146.074-.22.11-.067.031-.135.062-.193.103-.061.038-.119.08-.176.12-.079.058-.152.12-.219.183a1.75 1.75 0 0 0-.12.11 2.71 2.71 0 0 0-.516.765c-.016.043-.031.078-.048.12-.04.11-.078.223-.104.344l-.031.13a2.946 2.946 0 0 0-.047.484 2.668 2.668 0 0 0 2.669 2.667c.089-.01.146-.021.209-.026zM72.55 41.13c-6.185 0-11.211 5.027-11.211 11.203 0 1.078.166 2.13.464 3.14l.115.355c.307.938.735 1.817 1.267 2.625l.052.083c.24.36.5.699.782 1.027l.12.15c.312.355.64.692 1 1.005.058-.035.127-.062.19-.098.442-.245.89-.47 1.349-.672.13-.057.256-.126.385-.177a15.95 15.95 0 0 1 1.737-.62c.172-.052.355-.083.527-.13.406-.105.813-.204 1.22-.277.287-.052.573-.083.86-.118.303-.043.604-.074.907-.1.318-.02.641-.037.96-.042.277-.005.548 0 .818.011.334.01.668.016 1.002.046.27.027.536.074.803.11a17.29 17.29 0 0 1 1.678.322c.308.074.61.147.913.24.281.083.552.188.829.287.317.12.637.239.949.374.136.058.27.1.407.162a11.514 11.514 0 0 0 2.236-3.453l.167-.4c.442-1.22.688-2.51.688-3.85 0-6.176-5.03-11.203-11.214-11.203zm-14.1 58.828c-3.305-1.215-6.188-2.887-8.503-4.948l-1.133 2.828a2.176 2.176 0 0 0 .22 2.057 2.18 2.18 0 0 0 1.831.968h7.194zm33.698-.157c.48-.677.595-1.51.319-2.291l-.872-2.464c-2.32 2.254-5.235 4.041-8.624 5.26l.022.057c.088.303.359.5.673.5h6.422c.83 0 1.58-.385 2.06-1.062zm-1.762-6.605c3.263-3.317 5.13-7.677 5.13-12.702 0-1.089-.046-2.177-.14-3.25-.053-.006-.105-.026-.157-.036-.13-.022-.25-.058-.38-.089a4.286 4.286 0 0 1-.496-.157c-.12-.041-.234-.098-.354-.15a4.838 4.838 0 0 1-.444-.244 4.38 4.38 0 0 1-.708-.532c-.094-.089-.189-.172-.277-.266-.12-.125-.218-.255-.323-.39a3.725 3.725 0 0 1-.224-.303 4.923 4.923 0 0 1-.256-.468c-.053-.11-.11-.208-.157-.323a4.864 4.864 0 0 1-.177-.573c-.025-.093-.062-.188-.083-.292a4.533 4.533 0 0 1-.093-.927c0-.297.036-.59.088-.874.01-.052.016-.1.026-.152.062-.276.146-.547.25-.807a.458.458 0 0 0 .042-.09 4.767 4.767 0 0 1 1.058-1.514c.194-.182.391-.36.61-.505-1.789-4.224-4.855-7.678-8.942-10.078-.026.046-.057.089-.079.135-.114.214-.238.422-.364.626a18.5 18.5 0 0 1-.678 1.02c-.14.182-.287.36-.427.537-.084.104-.156.208-.245.306a16.927 16.927 0 0 1 2.863 2.287 1.063 1.063 0 0 1-.757 1.818 1.07 1.07 0 0 1-.756-.312 14.655 14.655 0 0 0-4.817-3.199l-.079-.03a14.763 14.763 0 0 0-8.26-.798c-.04.005-.076.016-.113.021-.39.078-.782.178-1.173.287-.062.02-.13.036-.199.057-.396.12-.787.255-1.173.411-.115.043-.219.09-.328.136-.277.12-.548.244-.813.38a12.454 12.454 0 0 0-1.408.797l-.173.11a14.76 14.76 0 0 0-2.24 1.828 1.066 1.066 0 0 1-1.508-1.506c.526-.532 1.095-1 1.674-1.443-.074-.067-.136-.13-.204-.198-.083-.083-.15-.172-.235-.254-.318-.34-.625-.683-.907-1.053-.056-.068-.109-.145-.16-.218-.304-.407-.58-.829-.835-1.266-.021-.042-.043-.078-.063-.12-.276-.494-.527-1-.74-1.531-1.09.36-2.05.703-2.7.98l-.408.166-.407-.161c-3.42-1.39-5.876-2.1-7.91-2.256 1.05 1.167 1.612 2.704 2.122 4.11.246.666.475 1.297.747 1.87l.328.692-.552.532c-2.983 2.874-3.264 4.88-3.828 8.874l-.125.921h-3.206c-.768 0-3.108 0-3.108 4.37v3.844c0 2.094.537 4.583 3.108 4.583h2.17l.243.72c1.72 4.994 6.242 8.968 12.336 11.275.21.078.423.15.637.224 3.602 1.276 7.711 1.984 12.111 1.984 3.468 0 6.675-.495 9.543-1.411l.04-.016c.116-.036.225-.078.335-.12a25.082 25.082 0 0 0 1.48-.546c.23-.094.449-.189.667-.287.407-.177.804-.37 1.195-.568.177-.088.36-.178.537-.27a23.382 23.382 0 0 0 1.496-.897c.167-.11.329-.224.495-.339.382-.265.746-.536 1.107-.817.113-.093.238-.188.353-.281.48-.401.944-.818 1.371-1.255a.067.067 0 0 0 .027-.027zm7.2-14.962c1.873-.453 3.27-2.13 3.27-4.136a4.55 4.55 0 0 0-.079-.802 4.79 4.79 0 0 1-3.29 3.756c.032.396.078.786.1 1.182zM67.075 58.938c-2.21-1.714-3.477-4.287-3.477-7.069 0-4.926 4.015-8.942 8.953-8.942 4.936 0 8.952 4.016 8.952 8.942 0 2.48-1.048 4.87-2.878 6.563-.44.396-1.112.37-1.512-.062a1.062 1.062 0 0 1 .057-1.506 6.725 6.725 0 0 0 2.195-4.995c0-3.754-3.056-6.806-6.814-6.806-3.76 0-6.816 3.052-6.816 6.806a6.76 6.76 0 0 0 2.65 5.38c.468.36.552 1.032.192 1.495a1.072 1.072 0 0 1-1.502.194zm5.918 36.597c.584-.063 1.106.386 1.158.97a1.069 1.069 0 0 1-.976 1.155c-.98.083-1.94.131-2.878.131-3.982 0-7.607-.776-11.225-2.376a1.061 1.061 0 0 1-.542-1.405 1.066 1.066 0 0 1 1.408-.543c4.18 1.85 8.206 2.49 13.055 2.068z"/></g></g></svg>