<svg xmlns="http://www.w3.org/2000/svg" width="141" height="141" viewBox="0 0 141 141"><g><g><path fill="#53b136" d="M70.5 0C109.436 0 141 31.564 141 70.5S109.436 141 70.5 141 0 109.436 0 70.5 31.564 0 70.5 0z"/></g><g><path fill="#fff" d="M103 58.197v39.745a5.066 5.066 0 0 1-5.058 5.057H44.058A5.066 5.066 0 0 1 39 97.942V58.197h1.067V43.266h24.53c.59 0 1.068.48 1.068 1.068a1.07 1.07 0 0 1-1.068 1.068H45.844l4.577 4.577c.033.037.053.084.084.12.037.052.08.104.104.161a.3.3 0 0 1 .042.068c.021.041.016.088.032.13.014.07.03.13.036.204 0 .021.016.046.016.073v7.462h40.53v-7.462c0-.027.015-.052.015-.073.006-.069.022-.135.037-.203.016-.043.01-.09.032-.13.01-.026.025-.042.04-.069.026-.057.07-.11.105-.161.032-.036.052-.083.084-.12l4.577-4.577H77.401a1.07 1.07 0 0 1-1.068-1.068 1.07 1.07 0 0 1 1.068-1.068h24.53v14.931zm-3.823-12.795l-5.432 5.432 5.52 7.363h.537V45.402zM93.4 58.197h3.197l-3.197-4.265zm-44.802 0v-4.265l-3.197 4.265zm-6.401 0h.537l5.525-7.363-5.437-5.432h-.625zm58.665 2.136H41.136v37.609a2.92 2.92 0 0 0 2.922 2.92h53.884a2.92 2.92 0 0 0 2.92-2.92zm-17.06 6.402a1.06 1.06 0 0 1 1.06 1.068v6.394c0 7.646-6.218 13.87-13.863 13.87s-13.864-6.224-13.864-13.87v-6.394a1.06 1.06 0 0 1 1.061-1.068c.595 0 1.068.473 1.068 1.068v6.394c0 6.474 5.266 11.734 11.735 11.734 6.469 0 11.734-5.26 11.734-11.734v-6.394c0-.595.474-1.068 1.068-1.068zm-23.47 1.068a2.139 2.139 0 0 0-2.136-2.136c-1.17 0-2.129.958-2.129 2.136 0 .588-.48 1.06-1.068 1.06a1.065 1.065 0 0 1-1.068-1.06 4.277 4.277 0 0 1 4.265-4.273 4.278 4.278 0 0 1 4.272 4.273c0 .588-.48 1.06-1.068 1.06-.59 0-1.068-.472-1.068-1.06zm23.47-4.273a4.277 4.277 0 0 1 4.264 4.273c0 .588-.48 1.06-1.067 1.06a1.065 1.065 0 0 1-1.069-1.06 2.137 2.137 0 0 0-2.129-2.136 2.139 2.139 0 0 0-2.136 2.136c0 .588-.479 1.06-1.068 1.06a1.065 1.065 0 0 1-1.068-1.06 4.278 4.278 0 0 1 4.272-4.273zM69.931 53.49V40.068c0-.589.48-1.067 1.068-1.067a1.07 1.07 0 0 1 1.067 1.067V53.49l5.646-5.646a1.062 1.062 0 0 1 1.505 0 1.07 1.07 0 0 1 0 1.511l-7.463 7.463a1.095 1.095 0 0 1-.755.318c-.14 0-.276-.032-.407-.084a1.135 1.135 0 0 1-.348-.234l-7.464-7.463a1.068 1.068 0 0 1 0-1.51 1.062 1.062 0 0 1 1.506 0z"/></g></g></svg>