<svg xmlns="http://www.w3.org/2000/svg" width="141" height="141" viewBox="0 0 141 141"><g><g><path fill="#9836b1" d="M70.5 0C109.436 0 141 31.564 141 70.5S109.436 141 70.5 141C31.563 141 0 109.436 0 70.5S31.563 0 70.5 0z"/></g><g><path fill="#fff" d="M100.928 72.032v-8.28c0-1.379-.886-2.571-2.206-2.966l-6.646-1.994c-.6.78-1.763 1.888-3.532 1.888-1.77 0-2.932-1.108-3.533-1.887l-4.463 1.34a5.55 5.55 0 0 1 2.836 4.843v.978a7.2 7.2 0 0 1 5.16-2.177c3.983 0 7.224 3.24 7.224 7.224v3.096a7.216 7.216 0 0 1-3.096 5.919v1.568l6.643 1.993a5.128 5.128 0 0 1 3.677 4.942v9.313H90.608c-.568 0-1.033.463-1.033 1.032v4.128H52.424v-4.128c0-.569-.464-1.032-1.032-1.032H39.008v-9.313a5.13 5.13 0 0 1 3.677-4.943l6.643-1.993v-1.568a7.213 7.213 0 0 1-3.096-5.92V71c0-3.984 3.24-7.224 7.224-7.224 2.071 0 3.937.881 5.255 2.281a11.91 11.91 0 0 1 2.51-5.995l-4.233-1.27c-.6.78-1.762 1.888-3.532 1.888s-2.932-1.108-3.532-1.888l-6.646 1.994a3.076 3.076 0 0 0-2.206 2.965v8.28h-2.064v-8.28a5.131 5.131 0 0 1 3.677-4.943l6.643-1.993v-1.568a7.213 7.213 0 0 1-3.096-5.92v-3.095c0-3.984 3.24-7.224 7.224-7.224 3.983 0 7.224 3.24 7.224 7.224v3.097a7.216 7.216 0 0 1-3.096 5.919v1.568l5.249 1.575a11.913 11.913 0 0 1 7.76-2.871c2.972 0 5.771 1.087 7.968 3.051l5.855-1.756v-1.568a7.213 7.213 0 0 1-3.096-5.92v-3.095c0-3.984 3.24-7.224 7.224-7.224 3.983 0 7.224 3.24 7.224 7.224v3.097a7.216 7.216 0 0 1-3.096 5.919v1.568l6.643 1.993a5.129 5.129 0 0 1 3.677 4.942v8.28zm-47.472-30.96a5.166 5.166 0 0 0-5.16 5.16h.604c.656 0 1.299-.266 1.762-.73l.73-.73.73.73c.462.464 1.105.73 1.76.73h4.734a5.166 5.166 0 0 0-5.16-5.16zm-5.16 8.256a5.166 5.166 0 0 0 5.16 5.16 5.166 5.166 0 0 0 5.16-5.16v-1.032h-4.733a4.518 4.518 0 0 1-2.491-.74 4.518 4.518 0 0 1-2.492.74h-.605zm5.16 9.288c1.097 0 1.808-.921 2.063-1.317v-1.051a7.185 7.185 0 0 1-4.127 0V57.3c.256.394.967 1.316 2.064 1.316zm28.367 18.113a5.14 5.14 0 0 1-3.157 1.449 8.302 8.302 0 0 1-2.506 3.384v2.034l.975.224c.208-.093.42-.178.639-.243l6.642-1.993v-1.568a7.254 7.254 0 0 1-2.593-3.287zM71 83.384a8.198 8.198 0 0 1-3.096-.608V83.9L71 86.222l3.096-2.322v-1.124a8.198 8.198 0 0 1-3.096.608zm-5.09 2.314l.654 3.272 2.589-1.553-2.516-1.888zm3.147 15.23h3.886l-.803-7.224h-2.28zm3.855-11.065L71 88.715l-1.914 1.148.593 1.777h2.64zm2.523-.894l.655-3.272-.727-.168-2.516 1.888zm5.08-13.823a3.078 3.078 0 0 0 .79-2.39c-.112-1.168-.939-2.145-2.05-2.567v4.939c0 .288-.015.572-.043.852a3.096 3.096 0 0 0 1.303-.834zm-3.323-5.178h-1.67l-.817-1.634a13.27 13.27 0 0 1-6.394 1.634h-3.503v5.16A6.198 6.198 0 0 0 71 81.32a6.198 6.198 0 0 0 6.192-6.192zM62.788 75.98a8.35 8.35 0 0 1-.045-.852V70.19c-1.11.42-1.936 1.399-2.048 2.566a3.076 3.076 0 0 0 .79 2.39c.357.392.81.667 1.303.834zm.546 2.198a5.14 5.14 0 0 1-3.158-1.449 7.265 7.265 0 0 1-2.592 3.287v1.568l6.643 1.993c.217.066.43.15.638.243l.975-.224v-2.034a8.28 8.28 0 0 1-2.506-3.384zM53.456 65.84a5.166 5.166 0 0 0-5.16 5.16h4.732a2.51 2.51 0 0 0 1.762-.73l.73-.73.73.73c.462.464 1.106.73 1.761.73h.605a5.166 5.166 0 0 0-5.16-5.16zm-5.16 8.256a5.166 5.166 0 0 0 5.16 5.16 5.166 5.166 0 0 0 5.16-5.16v-1.032h-.605c-.9 0-1.758-.258-2.492-.74a4.518 4.518 0 0 1-2.49.74h-4.734zm5.16 7.224c-.718 0-1.41-.109-2.064-.304v1.052c.256.394.967 1.316 2.064 1.316s1.808-.921 2.063-1.317v-1.051a7.185 7.185 0 0 1-2.063.304zm-2.064 14.448a3.1 3.1 0 0 1 3.096 3.096v2.064h5.16v-8.256h2.064v8.256h5.268l.904-8.145-.61-1.833-2.16 1.295-1.216-6.084-5.41 1.249a5.138 5.138 0 0 0-4 5.028v1.266h-2.064v-1.266a7.192 7.192 0 0 1 5.6-7.04l2.877-.663-3.913-1.175c-.6.78-1.762 1.888-3.532 1.888s-2.932-1.108-3.533-1.888l-6.645 1.994a3.076 3.076 0 0 0-2.206 2.965v7.249H45.2v-7.224h2.064v7.224zM92.076 83.56c-.6.78-1.763 1.888-3.532 1.888-1.77 0-2.932-1.108-3.533-1.888l-3.913 1.175 2.879.663a7.192 7.192 0 0 1 5.598 7.04v1.266h-2.063v-1.266a5.138 5.138 0 0 0-4-5.028l-5.411-1.25-1.217 6.085-2.159-1.295-.61 1.833.904 8.145h5.269v-8.256h2.063v8.256h5.16v-2.064a3.1 3.1 0 0 1 3.097-3.096h4.128v-7.224H96.8v7.224h4.128v-7.25c0-1.377-.886-2.569-2.207-2.964zm-1.468-2.544a7.185 7.185 0 0 1-4.128 0v1.052c.253.391.965 1.316 2.064 1.316 1.097 0 1.808-.921 2.064-1.316zm-2.064-1.76a5.166 5.166 0 0 0 5.16-5.16v-1.032H88.97a4.518 4.518 0 0 1-2.491-.74 4.518 4.518 0 0 1-2.491.74h-.605v1.032a5.166 5.166 0 0 0 5.16 5.16zm0-13.416a5.166 5.166 0 0 0-5.16 5.16h.605c.655 0 1.298-.266 1.761-.73l.73-.73.73.73c.463.464 1.105.73 1.761.73h4.733a5.166 5.166 0 0 0-5.16-5.16zm-7.224-.865c0-1.507-.961-2.839-2.39-3.316l-.231-.077-1.096-1.095a9.849 9.849 0 0 0-7.01-2.903c-5.465 0-9.913 4.448-9.913 9.913v1.526a5.422 5.422 0 0 1 3.273-1.12h4.358c2.23 0 4.389-.652 6.245-1.89l.972-.648 1.27 2.539h1.249a5.42 5.42 0 0 1 3.273 1.12zm7.224-23.903a5.166 5.166 0 0 0-5.16 5.16h4.732c.656 0 1.299-.266 1.762-.73l.73-.73.73.73c.462.464 1.105.73 1.76.73h.606a5.166 5.166 0 0 0-5.16-5.16zm-5.16 8.256a5.166 5.166 0 0 0 5.16 5.16 5.166 5.166 0 0 0 5.16-5.16v-1.032h-.605a4.518 4.518 0 0 1-2.491-.74 4.518 4.518 0 0 1-2.492.74h-4.732zm5.16 9.288c1.097 0 1.808-.921 2.064-1.317v-1.051a7.185 7.185 0 0 1-2.064.304c-.717 0-1.41-.109-2.064-.304V57.3c.253.391.965 1.316 2.064 1.316zm-25.8-19.608h2.064v2.064h-2.065zm0 4.128h2.064v11.352h-2.065zm14.448-4.128h2.064v2.064h-2.064zm0 4.128h2.064v11.352h-2.064zm-10.32 0h2.064v7.224h-2.064zm0 9.288h2.064v2.064h-2.064zm6.192-9.288h2.063v7.224h-2.063zm0 9.288h2.063v2.064h-2.063z"/></g></g></svg>