<svg xmlns="http://www.w3.org/2000/svg" width="141" height="141" viewBox="0 0 141 141"><g><g><path fill="#b16736" d="M70.5 0C109.436 0 141 31.564 141 70.5S109.436 141 70.5 141 0 109.436 0 70.5 31.564 0 70.5 0z"/></g><g><path fill="#fff" d="M100.894 82.402a13.325 13.325 0 0 1 2.098 7.174 13.46 13.46 0 0 1-2.958 8.405l-1.609-1.294a11.23 11.23 0 0 0 2.502-7.111c0-6.26-5.092-11.352-11.351-11.352-6.26 0-11.352 5.093-11.352 11.352s5.093 11.352 11.352 11.352c2.723 0 5.356-.978 7.415-2.756l1.349 1.563a13.418 13.418 0 0 1-8.764 3.257 13.32 13.32 0 0 1-7.17-2.096A31.848 31.848 0 0 1 71 102.992c-17.64 0-31.992-14.351-31.992-31.992A31.704 31.704 0 0 1 45.2 52.1V39.009h6.192v4.128h3.912A31.897 31.897 0 0 1 71 39.008c17.64 0 31.992 14.352 31.992 31.992 0 3.93-.71 7.764-2.098 11.402zm-1.237-20.024l-7.59 7.59h8.835a29.79 29.79 0 0 0-1.245-7.59zm-6.793-11.784L73.491 69.968h6.37l2.793-2.794 1.46 1.46-1.335 1.334h6.37l9.758-9.759a29.95 29.95 0 0 0-2.075-4.294L85.635 67.112l-1.46-1.459 11.527-11.527a30.285 30.285 0 0 0-2.838-3.532zm-8.442-3.764l1.662-1.662a29.67 29.67 0 0 0-4.294-2.075l-9.758 9.758v6.37l11.082-11.083 1.46 1.459-12.542 12.542v6.37l19.373-19.374a30.122 30.122 0 0 0-3.532-2.837l-1.992 1.991zm-4.8-4.487a29.786 29.786 0 0 0-7.59-1.245v8.834zM63.775 63.776h2.064v-6.192h-2.064zm-2.064-10.32h-2.065v10.32h2.065zm-4.128-4.128H55.52v14.448h2.064zM51.392 45.2v18.576h2.064V45.2zm-4.129 18.576h2.065V41.072h-2.065zM45.2 65.84v-9.977a29.576 29.576 0 0 0-4.087 14.105h28.855v-28.86a29.802 29.802 0 0 0-14.448 4.29v1.866h4.127v4.127h4.129v4.129h4.128v10.32zm24.768 35.062v-28.87h-28.87c.535 15.682 13.188 28.334 28.87 28.87zm29.428-20.436a29.751 29.751 0 0 0 1.508-8.434H72.032v28.872a29.76 29.76 0 0 0 8.437-1.505c-2.643-2.452-4.31-5.942-4.31-9.823 0-7.398 6.02-13.416 13.417-13.416 3.879 0 7.368 1.664 9.82 4.306zm-47.697 8.38l12.384-12.384 1.46 1.46-12.385 12.384zm14.14-1.334a3.1 3.1 0 0 1-3.095 3.096 3.1 3.1 0 0 1-3.096-3.096 3.1 3.1 0 0 1 3.096-3.096 3.1 3.1 0 0 1 3.096 3.096zm-2.063 0a1.033 1.033 0 0 0-2.064 0 1.033 1.033 0 0 0 2.064 0zm-12.384-8.256a3.1 3.1 0 0 1 3.095-3.096 3.1 3.1 0 0 1 3.097 3.096 3.1 3.1 0 0 1-3.097 3.096 3.1 3.1 0 0 1-3.095-3.096zm2.064 0c0 .57.463 1.032 1.031 1.032a1.033 1.033 0 1 0-1.032-1.032zm34.056 7.224c0 1.138.926 2.064 2.064 2.064a4.132 4.132 0 0 1 4.127 4.128c0 1.918-1.32 3.52-3.095 3.981v2.21h-2.064v-2.21c-1.775-.461-3.096-2.063-3.096-3.981h2.064c0 1.138.926 2.063 2.064 2.063a2.066 2.066 0 0 0 2.064-2.063 2.066 2.066 0 0 0-2.064-2.064 4.132 4.132 0 0 1-4.128-4.128c0-1.919 1.32-3.52 3.096-3.982v-2.21h2.064v2.21c1.775.462 3.095 2.063 3.095 3.982H91.64a2.066 2.066 0 0 0-2.064-2.064 2.066 2.066 0 0 0-2.064 2.064zm9.288 2.064h2.064v2.064H96.8zm-16.512 0h2.064v2.064h-2.064z"/></g></g></svg>