<svg xmlns="http://www.w3.org/2000/svg" width="140" height="140" viewBox="0 0 140 140"><g><g><path fill="#fff" d="M70 0c38.66 0 70 31.34 70 70s-31.34 70-70 70S0 108.66 0 70 31.34 0 70 0z"/></g><g><path fill="#006861" d="M43.875 51.241a6.211 6.211 0 0 0-1.53.986 1.057 1.057 0 0 1-.7.262c-.3 0-.598-.125-.806-.371a1.066 1.066 0 0 1 .104-1.503 8.616 8.616 0 0 1 2.046-1.32 1.067 1.067 0 0 1 1.413.528c.244.537.01 1.173-.527 1.419zm3.724-.579a1.067 1.067 0 1 1 0-2.134h2.136a1.066 1.066 0 1 1 0 2.134zm6.401 0a1.067 1.067 0 1 1 0-2.134h2.136a1.06 1.06 0 0 1 1.062 1.065c0 .595-.474 1.07-1.062 1.07zM49.735 63.49a1.067 1.067 0 1 1 0 2.134h-2.136a1.067 1.067 0 1 1 0-2.134zm12.796 0c.594 0 1.068.473 1.068 1.07 0 .589-.474 1.064-1.068 1.064H60.4a1.066 1.066 0 1 1 0-2.134zm-6.395 0c.588 0 1.062.473 1.062 1.07a1.06 1.06 0 0 1-1.062 1.064H54a1.066 1.066 0 1 1 0-2.134zm-12.261-.58c.537.246.77.883.527 1.42a1.065 1.065 0 0 1-1.413.522 8.273 8.273 0 0 1-2.04-1.316 1.069 1.069 0 0 1-.11-1.508 1.068 1.068 0 0 1 1.505-.104c.463.402.979.73 1.531.985zm25.057.58c.59 0 1.068.473 1.068 1.07 0 .589-.479 1.064-1.068 1.064h-2.13a1.062 1.062 0 0 1-1.068-1.064c0-.597.474-1.07 1.068-1.07zm19.203 0c.588 0 1.062.473 1.062 1.07a1.06 1.06 0 0 1-1.062 1.064h-2.136a1.067 1.067 0 1 1 0-2.134zm6.395 0c.594 0 1.068.473 1.068 1.07 0 .589-.474 1.064-1.068 1.064H92.4a1.066 1.066 0 1 1 0-2.134zm-19.197 0a1.067 1.067 0 1 1 0 2.134h-2.136a1.06 1.06 0 0 1-1.061-1.064c0-.597.473-1.07 1.061-1.07zm6.4 0a1.067 1.067 0 1 1 0 2.134h-2.135a1.067 1.067 0 1 1 0-2.134zM43.876 94.968c.537.246.77.883.527 1.42a1.065 1.065 0 0 1-1.413.522 8.272 8.272 0 0 1-2.04-1.315 1.07 1.07 0 0 1-.11-1.509 1.068 1.068 0 0 1 1.505-.104c.463.402.979.731 1.531.986zm12.261.58c.588 0 1.062.474 1.062 1.07 0 .589-.474 1.065-1.062 1.065H54a1.067 1.067 0 1 1 0-2.135zm-6.401 0a1.067 1.067 0 1 1 0 2.135h-2.136a1.067 1.067 0 1 1 0-2.135zm25.598 0a1.067 1.067 0 1 1 0 2.135h-2.136a1.061 1.061 0 0 1-1.061-1.065c0-.596.473-1.07 1.061-1.07zm3.197 1.07c0-.596.48-1.07 1.068-1.07h2.136a1.067 1.067 0 1 1 0 2.135h-2.136a1.067 1.067 0 0 1-1.068-1.065zM86 97.683a1.067 1.067 0 1 1 0-2.135h2.135c.588 0 1.062.474 1.062 1.07 0 .589-.474 1.065-1.062 1.065zm-17.068-2.135c.59 0 1.068.474 1.068 1.07 0 .589-.479 1.065-1.068 1.065h-2.13a1.063 1.063 0 0 1-1.068-1.065c0-.596.474-1.07 1.068-1.07zM92.4 97.683a1.066 1.066 0 1 1 0-2.135h2.13c.594 0 1.068.474 1.068 1.07 0 .589-.474 1.065-1.068 1.065zm-29.87-2.135c.595 0 1.069.474 1.069 1.07 0 .589-.474 1.065-1.068 1.065H60.4c-.59 0-1.068-.476-1.068-1.065 0-.596.479-1.07 1.068-1.07zm22.401-16.03a4.275 4.275 0 0 1 4.266-4.273 4.277 4.277 0 0 1 4.272 4.273 4.276 4.276 0 0 1-4.272 4.273 4.275 4.275 0 0 1-4.266-4.273zm4.266-2.14c-1.171 0-2.13.96-2.13 2.14 0 1.18.959 2.134 2.13 2.134a2.136 2.136 0 0 0 0-4.274zm12.802-33.128v57.71H45.63c-4.21 0-7.63-3.433-7.63-7.644V52.802c0-4.717 3.827-8.552 8.53-8.552h17.88l5.797-5.808a1.215 1.215 0 0 1 1.718 0l2.183 2.187 2.183-2.187a1.21 1.21 0 0 1 1.713 0l5.8 5.808zm-26.385-2.108L58.58 59.215h5.749l12.005-12.033a1.153 1.153 0 0 1 1.62-.01l12.015 12.043h5.755L77.15 40.607zm1.536 7.247l-9.806 9.826h19.614zm-9.724-5.139L52.495 59.215h3.063l17.04-17.073-1.53-1.535zM46.531 46.39c-3.525 0-6.394 2.875-6.394 6.413 0 3.533 2.869 6.413 6.394 6.413h2.948l9.927-9.946c.105-.329.349-.573.673-.677l2.197-2.203zm53.332 27.786H88.135c-2.942 0-5.333 2.395-5.333 5.343 0 2.943 2.39 5.343 5.333 5.343h11.728zm0-12.821H46.53c-.307 0-.61-.02-.905-.052-.099-.01-.199-.031-.298-.042-.197-.03-.39-.057-.582-.098a6.542 6.542 0 0 1-.339-.09c-.172-.047-.344-.088-.51-.14a6.378 6.378 0 0 1-.35-.131 9.39 9.39 0 0 1-.464-.182c-.113-.052-.222-.11-.337-.167a7.156 7.156 0 0 1-.428-.23c-.115-.063-.219-.13-.328-.199a6.623 6.623 0 0 1-.396-.265c-.104-.074-.208-.146-.307-.23a6.279 6.279 0 0 1-.365-.302 6.764 6.764 0 0 1-.286-.257c-.1-.099-.193-.197-.291-.296.02.066.025.14.046.208.11.375-.01.75-.254 1.018v29.235c0 .616.082 1.222.254 1.807.11.375-.01.75-.254 1.017v2.358c0 3.038 2.462 5.505 5.494 5.505h54.232v-2.138h-1.061a1.063 1.063 0 0 1-1.069-1.065c0-.596.474-1.07 1.069-1.07h1.06v-8.552H88.136c-4.12 0-7.469-3.356-7.469-7.478 0-4.128 3.35-7.483 7.469-7.483h11.728v-6.412h-1.061a1.063 1.063 0 0 1-1.069-1.064c0-.597.474-1.07 1.069-1.07h1.06zm0-2.139V46.389H85.937l2.145 2.15c.016-.005.032-.01.053-.01h2.13a1.066 1.066 0 1 1 0 2.134h-.063l8.537 8.552zm-3.198-10.687a1.066 1.066 0 1 1 0 2.134H94.53a1.061 1.061 0 0 1-1.061-1.069c0-.59.473-1.065 1.06-1.065z"/></g></g></svg>