<svg xmlns="http://www.w3.org/2000/svg" width="140" height="140" viewBox="0 0 140 140"><g><g><path fill="#fff" d="M70 0c38.66 0 70 31.34 70 70s-31.34 70-70 70S0 108.66 0 70 31.34 0 70 0z"/></g><g><path fill="#006861" d="M73.096 83.416c.57 0 1.032.461 1.032 1.032v14.448a3.1 3.1 0 0 1-3.096 3.096H58.648c-.16 0-.32-.037-.462-.108l-3.91-1.956H38.009v-2.064h12.384V85.48H38.008v-2.064h7.224V39.04c0-.57.462-1.032 1.032-1.032H85.48c.285 0 .543.115.73.303l8.254 8.254c.188.187.304.445.304.73V70h-2.064V48.328H85.48c-.57 0-1.032-.462-1.032-1.032v-7.224H47.296v43.344h6.797l3.523-3.524v-5.764c0-.57.462-1.032 1.032-1.032h1.031a4.133 4.133 0 0 1 4.129 4.128v6.192zM86.51 46.264h4.733l-4.733-4.733zm-14.447 51.6h-8.256V95.8h8.256v-2.064h-8.256v-2.064h8.256v-2.064h-8.256v-2.064h8.256V85.48h-9.288c-.57 0-1.032-.462-1.032-1.032v-7.224a2.066 2.066 0 0 0-2.065-2.064v5.16c0 .275-.108.536-.301.73l-4.129 4.127a1.027 1.027 0 0 1-.729.303h-2.065v12.384h2.065c.16 0 .319.037.461.108l3.91 1.956h12.14c.569 0 1.032-.463 1.032-1.032zm26.831-6.192a3.1 3.1 0 0 1 3.097 3.096v2.064c0 .57-.463 1.032-1.032 1.032h-1.032v3.096c0 .57-.463 1.032-1.033 1.032H80.32c-.57 0-1.033-.462-1.033-1.032v-3.096h-1.031c-.57 0-1.032-.462-1.032-1.032v-2.064a3.1 3.1 0 0 1 3.096-3.096h1.032V90.64a3.099 3.099 0 0 1 3.096-3.096h2.063v-1.808c0-2.709-.64-5.422-1.852-7.846l-.103-.205a1.04 1.04 0 0 1-.108-.461v-1.032a5.166 5.166 0 0 1 5.16-5.16 5.166 5.166 0 0 1 5.16 5.16v1.032c0 .16-.037.319-.108.461l-.104.205a17.645 17.645 0 0 0-1.852 7.846v1.808h2.064a3.1 3.1 0 0 1 3.096 3.096v1.032zM86.511 76.98a19.692 19.692 0 0 1 2.065 8.755v1.808h2.064v-1.808c0-3.022.713-6.05 2.064-8.755v-.79a3.1 3.1 0 0 0-3.096-3.095 3.1 3.1 0 0 0-3.097 3.096zm-3.095 14.69H95.8V90.64c0-.57-.464-1.032-1.032-1.032h-10.32c-.569 0-1.032.462-1.032 1.032zm14.448 6.193H81.352v2.064h16.512zm2.064-3.097c0-.57-.464-1.031-1.033-1.031H80.32c-.569 0-1.033.462-1.033 1.031V95.8h20.64zM49.36 42.136h33.024V44.2H49.36zm0 4.128h33.024v2.064H49.36zm0 4.128h33.024v2.064H49.36zm36.12 15.48c0 6.26-5.093 11.352-11.352 11.352-6.26 0-11.352-5.093-11.352-11.352 0-6.26 5.092-11.352 11.352-11.352 6.259 0 11.352 5.093 11.352 11.352zM74.128 75.16c5.12 0 9.288-4.167 9.288-9.288 0-5.122-4.167-9.288-9.288-9.288s-9.288 4.166-9.288 9.288c0 5.121 4.167 9.288 9.288 9.288zm3.17-14.831l1.916.766-4.127 10.32a1.034 1.034 0 0 1-1.689.346l-4.128-4.128 1.46-1.459 3.02 3.022z"/></g></g></svg>