<svg xmlns="http://www.w3.org/2000/svg" width="140" height="140" viewBox="0 0 140 140"><g><g><path fill="#fff" d="M70 0c38.66 0 70 31.34 70 70s-31.34 70-70 70S0 108.66 0 70 31.34 0 70 0z"/></g><g><path fill="#006861" d="M75.8 55.878a16.447 16.447 0 0 0-6.107-1.164c-9.146 0-16.586 7.441-16.586 16.587s7.44 16.587 16.586 16.587c9.144 0 16.583-7.441 16.583-16.587 0-2.105-.388-4.157-1.156-6.099a1.51 1.51 0 0 1 2.81-1.11 19.536 19.536 0 0 1 1.367 7.209c0 10.812-8.795 19.608-19.604 19.608-10.81 0-19.606-8.796-19.606-19.608 0-10.812 8.795-19.608 19.606-19.608 2.496 0 4.927.463 7.224 1.378a1.51 1.51 0 0 1-1.116 2.807zm21.44 7.524a28.71 28.71 0 0 1 1.103 7.899c0 15.802-12.853 28.658-28.65 28.658-15.799 0-28.652-12.856-28.652-28.658 0-15.802 12.853-28.658 28.652-28.658 2.688 0 5.35.373 7.912 1.109a1.51 1.51 0 1 1-.834 2.904 25.635 25.635 0 0 0-7.078-.992c-14.134 0-25.632 11.5-25.632 25.637 0 14.136 11.498 25.636 25.632 25.636 14.132 0 25.63-11.5 25.63-25.636 0-2.402-.333-4.78-.987-7.068a1.51 1.51 0 0 1 2.904-.831zM62.155 71.3c0 4.156 3.381 7.537 7.538 7.537 4.155 0 7.535-3.38 7.535-7.537 0-.219-.01-.439-.028-.654a1.511 1.511 0 0 1 3.008-.269c.027.304.041.615.041.923 0 5.822-4.735 10.558-10.556 10.558-5.822 0-10.558-4.736-10.558-10.558 0-5.823 4.736-10.56 10.558-10.56.324 0 .645.014.953.043a1.51 1.51 0 0 1-.278 3.008 7.24 7.24 0 0 0-.675-.03c-4.157 0-7.538 3.382-7.538 7.539zm42.012-21.907l-8.8 8.8a4.5 4.5 0 0 1-3.202 1.327H83.62L71.345 71.797a1.506 1.506 0 0 1-2.136 0 1.511 1.511 0 0 1 0-2.136l12.274-12.276v-8.548c0-1.21.471-2.348 1.326-3.203l8.799-8.8a3.012 3.012 0 0 1 3.292-.656 3.013 3.013 0 0 1 1.865 2.792v5.266h5.265c1.226 0 2.323.733 2.792 1.866a3.014 3.014 0 0 1-.655 3.292zm-19.663-.557v5.527l9.24-9.243v-6.15l-8.799 8.799a1.5 1.5 0 0 0-.441 1.067zm17.526-1.578l-6.15-.001-9.24 9.242h5.525a1.52 1.52 0 0 0 1.067-.442z"/></g></g></svg>