<svg xmlns="http://www.w3.org/2000/svg" width="140" height="140" viewBox="0 0 140 140"><g><g><path fill="#fff" d="M70 0c38.66 0 70 31.34 70 70s-31.34 70-70 70S0 108.66 0 70 31.34 0 70 0z"/></g><g><path fill="#006861" d="M90.127 65.89c1.872 0 3.393 1.55 3.393 3.46v22.283c0 5.714-4.563 10.366-10.167 10.366H56.709c-5.604 0-10.167-4.652-10.167-10.366V69.35c0-1.91 1.52-3.46 3.393-3.46h35.758v-8.338c0-8.815-7.034-15.973-15.669-15.973-8.646 0-15.668 7.171-15.668 15.973 0 .994-.78 1.79-1.755 1.79-.975 0-1.756-.796-1.756-1.79 0-10.79 8.608-19.552 19.18-19.552 10.584 0 19.179 8.776 19.179 19.552v8.338zm-.117 3.58H50.065v22.163c0 3.752 2.99 6.787 6.658 6.787h26.63c3.68 0 6.657-3.05 6.657-6.787zM70.038 90.904c-3.629 0-6.567-3.009-6.567-6.695 0-3.684 2.938-6.693 6.567-6.693 3.614 0 6.566 2.995 6.566 6.693 0 3.686-2.939 6.695-6.566 6.695zm0-9.823c-1.69 0-3.056 1.419-3.056 3.128 0 1.71 1.365 3.116 3.056 3.116 1.69 0 3.055-1.418 3.055-3.128 0-1.71-1.365-3.116-3.055-3.116z"/></g></g></svg>