<svg xmlns="http://www.w3.org/2000/svg" width="140" height="140" viewBox="0 0 140 140"><g><g><path fill="#fff" d="M70 0c38.66 0 70 31.34 70 70s-31.34 70-70 70S0 108.66 0 70 31.34 0 70 0z"/></g><g><path fill="#006861" d="M93.655 83.254c.339-.484 1-.604 1.484-.265.486.338.605 1.005.272 1.49l-6.63 9.52a1.077 1.077 0 0 1-.73.448c-.052.005-.098.01-.145.01-.245 0-.485-.083-.677-.244l-5.104-4.187a1.062 1.062 0 0 1-.152-1.5 1.067 1.067 0 0 1 1.5-.152l4.214 3.459zm-22.587-17.5c1.833.48 3.197 2.131 3.197 4.115A4.268 4.268 0 0 1 70 74.136c-1.938 0-3.552-1.303-4.073-3.068h-7.661A1.07 1.07 0 0 1 57.198 70c0-.588.48-1.068 1.068-1.068h7.578a4.27 4.27 0 0 1 3.088-3.178V54.937c0-.588.48-1.068 1.068-1.068.587 0 1.068.48 1.068 1.068zM70 72.005a2.14 2.14 0 0 0 2.135-2.136c0-1.176-.958-2.13-2.135-2.13a2.134 2.134 0 0 0-2.136 2.13A2.14 2.14 0 0 0 70 72.005zm0-23.468a1.066 1.066 0 0 1-1.068-1.067v-1.063c0-.595.48-1.068 1.068-1.068.587 0 1.068.473 1.068 1.068v1.063c0 .593-.48 1.067-1.068 1.067zm0 42.665c.587 0 1.068.48 1.068 1.068v1.068A1.07 1.07 0 0 1 70 94.406a1.07 1.07 0 0 1-1.068-1.068V92.27c0-.588.48-1.068 1.068-1.068zm22.4-20.265a1.068 1.068 0 0 1 0-2.135h1.069c.587 0 1.06.479 1.06 1.067 0 .59-.473 1.068-1.06 1.068zm-44.8-2.134a1.068 1.068 0 0 1 0 2.134h-1.07a1.064 1.064 0 0 1-1.06-1.068c0-.588.473-1.066 1.06-1.066zm38.238-13.704c-.27 0-.547-.104-.756-.312a1.07 1.07 0 0 1 0-1.51l.756-.756a1.068 1.068 0 0 1 1.51 1.51l-.755.756a1.06 1.06 0 0 1-.755.312zm-32.431 29.86a1.058 1.058 0 0 1 1.51 0 1.064 1.064 0 0 1 0 1.505l-.756.754a1.074 1.074 0 0 1-1.51 0 1.07 1.07 0 0 1 0-1.51zm1.51-31.683a1.07 1.07 0 0 1 0 1.51 1.074 1.074 0 0 1-1.51 0l-.756-.755a1.068 1.068 0 0 1 1.51-1.51zM102 70c0 3.787-.667 7.494-1.973 11.04a13.769 13.769 0 0 1 1.973 7.095c0 7.645-6.219 13.864-13.864 13.864-2.594 0-5.016-.73-7.094-1.973A31.817 31.817 0 0 1 70 101.999c-17.645 0-32-14.354-32-32C38 52.356 52.356 38 70 38c17.644 0 31.999 14.355 31.999 32zM78.932 98.499c-.094-.084-.178-.183-.271-.27a16.64 16.64 0 0 1-.536-.527 12.374 12.374 0 0 1-.89-1.03 13.796 13.796 0 0 1-.454-.605 10.64 10.64 0 0 1-.344-.521c-.135-.213-.27-.432-.396-.651-.104-.188-.203-.38-.296-.573-.11-.224-.224-.443-.324-.667-.093-.219-.17-.437-.255-.661-.084-.213-.167-.421-.235-.635-.082-.261-.145-.526-.213-.787-.052-.193-.11-.38-.15-.573-.068-.317-.11-.636-.156-.958-.022-.15-.052-.302-.068-.454a14.965 14.965 0 0 1-.079-1.452c0-7.646 6.224-13.87 13.87-13.87.49 0 .974.032 1.452.078.152.017.297.047.448.069.324.046.647.087.964.156.194.041.375.098.568.145.266.068.53.136.792.218.214.069.421.151.63.23.223.084.448.167.666.26.224.1.443.21.661.319.194.098.39.191.579.301.219.12.432.256.646.39.177.115.36.23.532.35.202.145.4.292.593.448.177.135.35.276.521.421.172.156.343.308.51.47.187.177.365.358.537.546.088.088.18.172.265.266A29.725 29.725 0 0 0 99.863 70c0-16.47-13.395-29.863-29.863-29.863C53.53 40.137 40.137 53.53 40.137 70S53.53 99.863 70 99.863c3.046 0 6.046-.457 8.932-1.364zm9.203 1.364c6.468 0 11.728-5.26 11.728-11.728a11.69 11.69 0 0 0-1.927-6.433c-.26-.39-.536-.76-.828-1.114-.057-.062-.114-.12-.172-.182a14.121 14.121 0 0 0-.729-.766c-.115-.105-.23-.209-.344-.307-.219-.193-.443-.375-.676-.552-.125-.094-.25-.194-.381-.281a11.07 11.07 0 0 0-.963-.605c-.09-.052-.183-.098-.27-.146a10.615 10.615 0 0 0-1.032-.479c-.135-.057-.276-.104-.417-.156a15.991 15.991 0 0 0-.854-.276c-.151-.041-.302-.078-.453-.115-.302-.073-.61-.13-.922-.177-.136-.02-.27-.046-.406-.062a11.763 11.763 0 0 0-1.354-.083c-6.474 0-11.734 5.26-11.734 11.734 0 .452.03.905.083 1.354.016.135.042.27.062.406.047.312.104.62.177.922.031.152.074.302.115.453.079.287.172.573.276.854.052.14.099.282.151.416.147.355.308.7.484 1.038.048.088.095.17.141.26.188.333.385.656.604.973.094.125.188.25.287.376.172.228.354.458.546.676l.313.344c.24.25.495.495.76.73.064.057.126.114.187.171a12.5 12.5 0 0 0 1.115.828 11.687 11.687 0 0 0 6.433 1.927z"/></g></g></svg>