<svg xmlns="http://www.w3.org/2000/svg" width="140" height="140" viewBox="0 0 140 140"><g><g><path fill="#fff" d="M70 0c38.66 0 70 31.34 70 70s-31.34 70-70 70S0 108.66 0 70 31.34 0 70 0z"/></g><g><path fill="#006861" d="M93.655 82.193c.339-.491 1-.61 1.484-.267.485.333.606 1 .272 1.485l-6.63 9.52a1.076 1.076 0 0 1-.73.448c-.052.011-.099.011-.145.011-.245 0-.486-.084-.678-.24l-5.103-4.192a1.061 1.061 0 0 1-.152-1.5 1.072 1.072 0 0 1 1.5-.152l4.214 3.459zM49.198 44.402A4.802 4.802 0 0 1 54 49.197 4.803 4.803 0 0 1 49.198 54a4.8 4.8 0 0 1 0-9.598zm0 7.462a2.664 2.664 0 0 0 2.666-2.667 2.669 2.669 0 0 0-2.666-2.666 2.673 2.673 0 0 0-2.667 2.666 2.668 2.668 0 0 0 2.667 2.667zm42.135-3.197a1.07 1.07 0 0 1 0-2.136c.587 0 1.068.48 1.068 1.068a1.07 1.07 0 0 1-1.068 1.068zm-4.266 0a1.069 1.069 0 0 1 0-2.136c.588 0 1.068.48 1.068 1.068a1.07 1.07 0 0 1-1.068 1.068zm6.401 3.197a1.06 1.06 0 0 1-1.067-1.061c0-.595.473-1.068 1.067-1.068a1.06 1.06 0 0 1 1.062 1.068 1.06 1.06 0 0 1-1.062 1.061zm-4.272 0a1.059 1.059 0 0 1-1.06-1.061 1.06 1.06 0 0 1 1.06-1.068c.596 0 1.069.473 1.069 1.068a1.06 1.06 0 0 1-1.069 1.061zm-6.394-3.197a1.065 1.065 0 0 1-1.068-1.068 1.065 1.065 0 0 1 2.129 0c0 .59-.473 1.068-1.06 1.068zm2.13 3.197a1.065 1.065 0 1 1 0-2.129 1.065 1.065 0 1 1 0 2.13zm-6.402-3.197a1.064 1.064 0 0 1-1.061-1.068 1.065 1.065 0 1 1 2.129 0c0 .59-.473 1.068-1.068 1.068zm2.136 3.197a1.065 1.065 0 1 1 0-2.129 1.065 1.065 0 0 1 0 2.13zm-6.401-3.197a1.07 1.07 0 0 1-1.068-1.068c0-.588.48-1.068 1.068-1.068a1.07 1.07 0 0 1 0 2.136zm2.136 3.197a1.064 1.064 0 1 1 0-2.129 1.065 1.065 0 0 1 0 2.13zM102 55.484c0 1.568-.75 2.948-1.896 3.85 1.147.9 1.896 2.28 1.896 3.849v12.566c0 1.844-1.052 3.485-2.61 4.318a13.778 13.778 0 0 1 2.61 8.068c0 7.645-6.219 13.864-13.864 13.864-1.885 0-3.688-.38-5.329-1.068H42.918A4.918 4.918 0 0 1 38 96.015V83.448c0-1.569.749-2.949 1.896-3.85-1.147-.9-1.896-2.28-1.896-3.85V63.184c0-1.569.749-2.948 1.896-3.85-1.147-.9-1.896-2.28-1.896-3.85V42.919A4.919 4.919 0 0 1 42.918 38h54.164a4.919 4.919 0 0 1 4.917 4.918zM79.275 98.802c-.145-.126-.276-.262-.415-.39-.199-.178-.397-.35-.585-.538a23.212 23.212 0 0 1-.473-.526 11.264 11.264 0 0 1-.474-.542c-.14-.182-.277-.364-.411-.552a18.57 18.57 0 0 1-.434-.624c-.114-.178-.223-.366-.333-.552a17.538 17.538 0 0 1-.39-.719 10.466 10.466 0 0 1-.255-.537 11.083 11.083 0 0 1-.339-.818c-.062-.171-.13-.344-.188-.516-.099-.301-.181-.609-.265-.92-.041-.162-.088-.318-.126-.486a14.549 14.549 0 0 1-.172-1.036c-.02-.14-.051-.276-.066-.416-.052-.495-.084-.99-.084-1.495 0-.423.027-.833.062-1.25.011-.13.027-.26.042-.39.037-.293.084-.584.136-.875.025-.126.041-.256.073-.386.078-.36.167-.713.271-1.068.052-.172.114-.344.177-.516a9.67 9.67 0 0 1 .213-.582c.072-.189.151-.375.23-.563.077-.172.167-.339.25-.51.16-.334.343-.657.531-.974.072-.115.135-.24.214-.355H42.918a2.784 2.784 0 0 0-2.782 2.782v12.567a2.785 2.785 0 0 0 2.782 2.787zm8.86 1.061c6.468 0 11.728-5.26 11.728-11.728a11.68 11.68 0 0 0-3.099-7.922c-.244-.265-.505-.52-.77-.766-.03-.031-.068-.062-.099-.087-.282-.251-.568-.48-.865-.7-.026-.015-.047-.035-.072-.051a10.611 10.611 0 0 0-.99-.64c-.005-.005-.01-.005-.01-.01a11.713 11.713 0 0 0-7.057-1.496c-.016.006-.027.006-.042.01-1.21.13-2.39.453-3.496.948 0 0-.004 0-.004.005-.365.161-.72.344-1.068.543a.542.542 0 0 1-.057.036c-.328.192-.641.396-.948.62-.036.025-.068.052-.104.077-.287.215-.568.438-.839.677l-.114.11c-.265.24-.521.494-.76.765a2.308 2.308 0 0 0-.11.115c-.203.224-.39.464-.573.704-.04.052-.078.099-.115.15-.171.24-.338.479-.489.73a10.675 10.675 0 0 0-.527.927l-.12.25c-.114.233-.218.474-.317.719-.036.104-.073.213-.115.317-.082.23-.16.464-.229.697-.041.136-.072.276-.109.412-.052.213-.104.427-.145.642-.037.187-.063.385-.09.577-.025.167-.057.339-.072.51a11.187 11.187 0 0 0-.005 2.193c.01.105.025.214.036.318.032.26.073.515.12.766.016.104.03.208.057.306.068.33.15.652.25.97.021.082.057.166.084.245.078.25.172.495.27.733.036.104.084.21.125.308.115.25.23.495.354.735.037.061.063.124.094.181.167.308.35.604.542.89.027.044.057.08.084.12a11.145 11.145 0 0 0 .676.886c.218.262.443.516.682.75.006.01.011.015.016.021.255.256.526.5.801.73.038.03.08.056.115.088.224.182.459.359.7.526.082.052.16.109.243.167.215.135.428.265.652.39.088.052.172.104.26.15.292.162.594.309.901.44l.088.04c1.396.583 2.927.906 4.532.906zm11.728-36.68a2.78 2.78 0 0 0-2.781-2.782H42.918a2.78 2.78 0 0 0-2.782 2.782v12.566a2.78 2.78 0 0 0 2.782 2.781h35.227c.01-.004.016-.01.027-.02 2.52-2.61 6.051-4.245 9.963-4.245.458 0 .922.026 1.375.073a13.82 13.82 0 0 1 8.458 4.03 2.78 2.78 0 0 0 1.895-2.62zm-2.781-4.918a2.78 2.78 0 0 0 2.781-2.781V42.918a2.78 2.78 0 0 0-2.781-2.781H42.918a2.78 2.78 0 0 0-2.782 2.78v12.567a2.78 2.78 0 0 0 2.782 2.781zm-47.884 16a4.8 4.8 0 0 1 0-9.598A4.803 4.803 0 0 1 54 69.469a4.802 4.802 0 0 1-4.802 4.796zm0-7.463a2.669 2.669 0 0 0-2.667 2.667 2.672 2.672 0 0 0 2.667 2.667 2.668 2.668 0 0 0 2.666-2.667 2.664 2.664 0 0 0-2.666-2.667zm42.135 2.13a1.066 1.066 0 1 1 0-2.13 1.065 1.065 0 1 1 0 2.13zm-4.266 0a1.065 1.065 0 1 1 0-2.13 1.065 1.065 0 1 1 0 2.13zm6.401 3.204c-.594 0-1.067-.48-1.067-1.068a1.065 1.065 0 1 1 2.129 0c0 .588-.474 1.068-1.062 1.068zm-4.272 0c-.587 0-1.06-.48-1.06-1.068a1.064 1.064 0 1 1 2.129 0c0 .588-.473 1.068-1.069 1.068zm-6.394-3.204a1.062 1.062 0 0 1-1.068-1.068 1.06 1.06 0 0 1 1.068-1.062c.588 0 1.061.474 1.061 1.062a1.06 1.06 0 0 1-1.06 1.068zm2.13 3.204a1.07 1.07 0 0 1-1.069-1.068 1.069 1.069 0 1 1 1.068 1.068zm-6.402-3.204a1.06 1.06 0 0 1-1.061-1.068c0-.588.473-1.062 1.061-1.062a1.06 1.06 0 0 1 1.068 1.062c0 .594-.473 1.068-1.068 1.068zm2.136 3.204a1.07 1.07 0 0 1-1.068-1.068c0-.59.48-1.068 1.068-1.068a1.07 1.07 0 0 1 1.068 1.068 1.07 1.07 0 0 1-1.068 1.068zm-6.401-3.204a1.065 1.065 0 0 1 0-2.13 1.064 1.064 0 1 1 0 2.13zm2.136 3.204a1.068 1.068 0 1 1 0-2.135 1.068 1.068 0 0 1 0 2.135zM49.198 84.932A4.806 4.806 0 0 1 54 89.734a4.8 4.8 0 0 1-9.598 0 4.805 4.805 0 0 1 4.796-4.802zm0 7.469a2.669 2.669 0 0 0 2.666-2.667 2.664 2.664 0 0 0-2.666-2.667 2.668 2.668 0 0 0-2.667 2.667 2.673 2.673 0 0 0 2.667 2.667z"/></g></g></svg>