<svg xmlns="http://www.w3.org/2000/svg" width="140" height="140" viewBox="0 0 140 140"><g><g><path fill="#fff" d="M70 0c38.66 0 70 31.34 70 70s-31.34 70-70 70S0 108.66 0 70 31.34 0 70 0z"/></g><g><path fill="#006861" d="M57.949 64.548a1.06 1.06 0 0 1-1.052-1.063 1.06 1.06 0 0 1 1.052-1.064h11.55a1.06 1.06 0 0 1 1.052 1.064 1.06 1.06 0 0 1-1.051 1.063zm16.8 5.31c.58 0 1.052.471 1.052 1.057 0 .592-.472 1.063-1.051 1.063H52.699a1.056 1.056 0 0 1-1.052-1.063c0-.586.473-1.057 1.052-1.057zm0 7.43c.58 0 1.052.478 1.052 1.064a1.06 1.06 0 0 1-1.051 1.063H52.699a1.06 1.06 0 0 1-1.052-1.063 1.06 1.06 0 0 1 1.052-1.063zm10.736-38.245c8.557 0 15.514 7.037 15.514 15.692v12.047c0 7.25-5.234 13.733-12.27 15.376-1.988 6.399-7.863 11.051-14.794 11.051h-1.512c-5.949 0-11.47 2.271-15.556 6.405l-1.6 1.618c-.312.317-.707.488-1.102.488-.179 0-.353-.037-.528-.11-.578-.243-.938-.839-.938-1.554v-6.883C44.629 92.607 38 85.618 38 77.408V65.356c0-7.54 5.28-13.846 12.298-15.35 2.026-6.487 7.993-10.963 14.766-10.963zm-11.55 52.04c5.962 0 11.027-3.993 12.764-9.49l.16-.602c.144-.518.246-1.042.329-1.561.015-.113.035-.222.05-.341.02-.182.036-.364.058-.544.024-.375.056-.753.056-1.137V65.356c0-7.478-6.02-13.566-13.417-13.566h-20.42c-.077 0-.16.01-.236.01a12.567 12.567 0 0 0-1.995.193l-.549.093c-6.064 1.295-10.632 6.752-10.632 13.27v12.047c0 7.062 5.67 13.068 12.596 13.623v-3.294c0-.585.472-1.061 1.05-1.061.58 0 1.053.476 1.053 1.061v10.969l.578-.59c4.481-4.533 10.531-7.028 17.043-7.028zm24.962-36.348c0-7.478-6.015-13.566-13.412-13.566h-20.42c-5.516 0-10.428 3.433-12.442 8.526.28-.022.558-.026.829-.026.026 0 .042-.005.062-.005h20.42c7.486 0 13.75 5.388 15.201 12.534a16.08 16.08 0 0 1 .313 3.158v12.047a14.92 14.92 0 0 1-.164 2.178c-.01.083-.016.166-.03.248 5.597-1.773 9.643-7.12 9.643-13.047z"/></g></g></svg>