<svg xmlns="http://www.w3.org/2000/svg" width="140" height="140" viewBox="0 0 140 140"><g><g><path fill="#fff" d="M70 0c38.66 0 70 31.34 70 70s-31.34 70-70 70S0 108.66 0 70 31.34 0 70 0z"/></g><g><path fill="#006861" d="M101.216 76.615a3.248 3.248 0 0 1 0 4.623l-16.978 16.85-8.583 2.326-.576.567a1.098 1.098 0 0 1-.781.32c-.281 0-.556-.106-.771-.315l-.022.005.005-.022a1.09 1.09 0 0 1 .012-1.54l.57-.566 2.338-8.515 16.984-16.85a3.324 3.324 0 0 1 4.66 0zM83.662 95.56l11.304-11.215-4.683-4.641-11.304 11.21zm-7.01 2.31l4.887-1.321-3.557-3.523zm23.006-18.176a1.085 1.085 0 0 0 0-1.53l-3.146-3.116a1.087 1.087 0 0 0-1.535 0l-3.137 3.106 4.683 4.645zM72.175 74.08l.215.252v4.399a5.075 5.075 0 0 1-2.673 4.464l-9.843 5.33a7.673 7.673 0 0 0-4.036 6.746v2.448h12.14a1.097 1.097 0 1 1 0 2.193H38.18v-4.16a8.666 8.666 0 0 1 4.559-7.617l7.344-4.565c.82-.45 1.287-1.236 1.287-2.102v-2.999c-.866-.903-3.108-3.48-4.02-6.885a3.899 3.899 0 0 1-1.442-3.026v-3.78c0-.887.387-1.78 1.097-2.55v-5.013c.011-.16.68-9.852 12.14-9.852 2.533 0 4.763.486 6.654 1.459.162-1.45.695-3.47 2.275-5.261 2.267-2.567 5.947-3.865 10.937-3.865 4.99 0 8.664 1.298 10.932 3.865 2.613 2.955 2.37 6.543 2.306 7.142v5.827a4.339 4.339 0 0 1 1.105 2.87v4.385c0 1.918-1.255 3.596-3.126 4.168a1.11 1.11 0 0 1-1.38-.72 1.091 1.091 0 0 1 .729-1.37c.937-.288 1.567-1.127 1.567-2.078V59.4c0-.609-.258-1.186-.738-1.614l-.36-.326.004-6.96c.006-.027.361-3.106-1.788-5.518-1.832-2.058-4.946-3.094-9.25-3.094-4.328 0-7.448 1.047-9.28 3.116-1.777 2.016-1.826 4.437-1.788 5.228l.033.022v7.206l-.367.326a2.165 2.165 0 0 0-.738 1.614v4.385c0 .738.382 1.422 1.018 1.832l.376.241.104.434c.08.362.183.716.286 1.063.005.022.014.043.02.07l.06.192a19.682 19.682 0 0 0 .501 1.385l.064.16c.06.15.124.294.183.428.017.043.04.085.06.129.135.304.275.598.415.876v.005c.264.519.528.99.78 1.406.006.016.017.027.028.044.113.191.232.373.34.544.005.006.005.016.01.022a19.288 19.288 0 0 0 .609.881c.076.107.146.199.205.273a.26.26 0 0 0 .016.027c.112.144.183.23.183.23zm-1.995 1.027a5.375 5.375 0 0 1-.215-.289 17.91 17.91 0 0 1-.69-1.004c-.03-.048-.064-.098-.096-.145-.146-.23-.297-.48-.458-.749l-.167-.293c-.118-.21-.237-.417-.355-.647-.071-.129-.136-.257-.206-.396l-.054-.107a26.565 26.565 0 0 1-.323-.684c-.027-.059-.059-.117-.087-.182l-.065-.14c-.02-.047-.042-.106-.063-.16-.098-.219-.188-.438-.276-.668-.037-.086-.074-.165-.107-.257-.08-.219-.15-.416-.216-.608-.042-.113-.08-.236-.118-.354-.017-.048-.032-.1-.048-.149l-.093-.288a16.15 16.15 0 0 1-.21-.744l-.016-.059a4.374 4.374 0 0 1-1.211-1.508l-.006-.005c-.087-.171-.135-.363-.194-.545-.043-.123-.102-.24-.13-.368a4.234 4.234 0 0 1-.113-.979V59.4c0-1.052.399-2.073 1.105-2.87v-5.18c-1.756-1.197-3.982-1.802-6.622-1.802-9.337 0-9.914 7.415-9.93 7.731v5.89l-.361.322c-.474.421-.744.892-.744 1.287v3.78c0 .589.308 1.133.814 1.46l.377.24.098.438c.867 3.743 3.798 6.491 3.83 6.517l.35.326v3.929a4.542 4.542 0 0 1-2.386 3.989l-7.34 4.564c-2.16 1.172-3.463 3.358-3.463 5.731v1.967H53.63v-2.448a9.86 9.86 0 0 1 5.189-8.671l6.206-3.363.716-.384 2.922-1.583a2.889 2.889 0 0 0 1.518-2.54z"/></g></g></svg>